<svg fill="none" xmlns="http://www.w3.org/2000/svg" viewBox="0 0 400 86"><path d="M.33 0v67.34c0 8.13 5.57 13.2 14.5 13.2h8.29c4.88 0 8.81 1.36 12.01 4.19l1.46 1.29 1.45-1.3c3.19-2.82 7.12-4.18 12.02-4.18h8.28c4.45 0 7.98-1.17 10.53-3.44 2.58-2.31 3.94-5.7 3.94-9.76V0H.33zm141.36 0a43 43 0 1 0-.01 86 43 43 0 0 0 0-86zM2.53 2.2H70.6v65.14c0 6.98-4.47 10.98-12.25 10.98h-8.29c-5.44 0-9.86 1.57-13.47 4.74-3.6-3.19-8.04-4.74-13.47-4.74h-8.3c-7.7 0-12.3-4.1-12.3-10.98V2.2zm139.16.1a40.69 40.69 0 1 1-.01 81.39 40.69 40.69 0 0 1 0-81.38zM35.8 4.25c-.26 0-.5.08-.76.23-2.4.61-2.85 2.48-5.77 1.22-.34-.03-.4.09-.26.36.5.67 1.2 1.11 1.97 1.44-.27.2-.8.23-1.67.16.5.66 1.47 1 2.97.97.56.33 1.25.2 1.98-.1.4-.22.43-.1.16.44-.77.64-1.3 1.87-1.4 4.12-.3.45-.46.97-.57 1.53-1.1-.3-2.08-.5-2.47-.17l-.44-.03c-.96-.73-1.9-.7-2.67-.2l-1.72 1.31c-.62.44-1.16.45-1.26-.08l-.74-1.48c.03-1.08-.36-1.57-1.1-1.64-.34-.3-.57-.67-.64-1.08l-.5-.62c.16-.58-.08-.77-.47-.77-.44 0-.84-.08-1.08-.25l-3.48-4.28c-.42.08-.59.38-.53.89l2.98 4.21c.1.2.3.4.27.56-.23.58-.33.94.17 1.44l1 .97c.1.7.23 1.28.47 1.48-.24.47.06.9.47 1.33.1.14.13.3.3.44l.17 1.43c-1.41 1.17-2.11 2.05-2.25 2.58-.07.3-.13.53.08.7l1.97-.2c.17.1.37.13.43.27.3.7-.1 1.8-1.17 1.94-2.44.6-4.22 1.43-3.5 3.08.89 1.17.43 2.2-1.11 3.14-.37.34-.53.76-.47 1.34-.44.36-.78.94-1.06 1.56-.25.67-.25.97.22.91 3.4-1.14 6.75-1.6 9.12.36 1.17.97.97 1.48 2.82 1.58-.21.78 0 1.2.67 1.34l.1.86c-.74.17-1.57.17-2.3.36-.84.2-1.64.54-2.37.54-.63-.5-1.36-.8-1.97-1.17-3.06-1.91-5.64-2.02-7.89.59a16.35 16.35 0 0 0-3.1 6.13c-.17.5-.57.7-1.37.23C6.4 42.9 6.1 41.73 6.9 40.96c1.14-1.06 1.58-.44.97.14l.04.13c.88 0 1.2.6 1.53 1.25.73-1.91.33-3.22-.7-4.25l-.23-.03.1 1.64c-1.77-.37-2.74 1-2.87 2.27-.1 1.25.47 2.34 2.06 3.28.9.3 1.17 1.33.47 2.37-1.75 2.53-1.47 5.24.1 8.72l.19-.1c.33-3.81 1.14-5.76 2.41-6.12.41-.14.76-.4 1.1-.84.39-.57.58-.5.86.11.7 1.6.63 3.14-.34 4.67-2.2 3.58-2.3 6.31.84 8.5l.09.26-.84 1.06c-.27.44-.07.97.67 1.58.53.63.79 1.67.97 2.97-.27.4-.3.9-.13 1.47.47.67 1.6 1.05 3.2.87.16-.03.13-.17.13-.34.12-.74-.36-1.27-.9-2.17-1.58-1.4-1.92-2.74-1.42-4.05l.23-.36c1.24.42 2.8.92 4.25 1.12a4.18 4.18 0 0 0 0 3.69c1 1.73 2.06 2.53 4.1 2.36 2.72-.22 4.06-2.47 3.06-5.5.97-.53 1.6-.5 1.94.1-.03 1.37.56.93.6 2.26-1.6 1.41-2.2 2.61-.46 3.39.9.9.4 1.23-.78 1.3-1.24-.3-2.14-.24-2.3.77-1.14.08-1.48.73-1.43 1.8.33-.8.97-.85 1.3-.66.6-.04 1.23.14 1.78-.1.5-.25 1.08-.25 1.7.03.33 0 .56.13.74.4.8.84.7-.08 2.47.98.44.03 1.17 0 1.3.7l.18-.64c.13-.24.06-.5-.22-.73-.57-.67.34-.71 1.92-.4.83.37 1.6.54 2.21.44.7-.7.87-.27.99.67.51-1.36.16-2.1-1.2-2.18.24-.73.33.36.85-.53.44-.2.86 0 1.3.44.1-.67-.3-1.07-1.17-1.28-.2-.56-.63-.59-1.22-.04-2.55-.66-2.81-2.2-1.37-2.5.76-.22 1.06.59 1.67.83.47.17.7.09 1.33.17.7.03 1.34.16 1.78.45l.5.17c.27-.2.53-.17.86.13.37.54.73.61 1.07.17 1-.8 2.5-.8 2.4-.3-.02.73.11 1 .37.94.23.03.33.33.33.86-.97-.03-1.63.14-1.63.84-.91.27-.87.9-.47 1.74-.1-1.6 1.27-.3 2.6-1.17l.95-.09c.1.46.54.67 1.36.64.3-.14.78-.14 1.08-.2 1.64-.42 2.93-.33 3.91 1 .2-.39.17-.82-.09-1.23 1.14-.77 2.37-.47 1.64.76.67-.33 1.34-2.03.47-2 .38-1 1.88-.17 1.44.56.64-.33.75-.83-.03-1.47-.1-.58-.57-.73-1.4-.5-.48-.8-1.07-.83-1.88-.14-.8.37-1.44.4-1.85-.13-.42-.7-.31-1.03.28-.8.3.1.44-.28.8-.98.14-.3.41-.53.6-.94.87-.14 1.59-.9 2.48-2.44.64-.3.94-1.55.97-3.47.27.13.6.03 1.03-.25-.3-.03-.44-.13-.44-.9h.84c.33-.13.47-.27.44-.43 0-.14-.34-.1-.58-.47-.1-.46-.36-.94-.86-1.41l-.8-1.3c-.57-1.81-1.24-2.85-2.07-2.18l-.23-.13a7.8 7.8 0 0 1-1.47-2.67c.03-1.28-1.3-1.34-2-.14l-.2-1-.33.53-2.11-3.04c.23-.03.64-.27.86-.3a18.7 18.7 0 0 0 7.78-2.44l1.87-.56c.84-.34 1.1-.06 1.55.38l1.9 1.97c.36.4.36.77.16 1.17-.2.4.27.94.93 1.52.6.66.66 1.57.13 2.7-.3.74-.22 1.2.22 1.44l1.3.94c.87.7 1.3.47 1.26-.76a4.48 4.48 0 0 0-.64-1.87 5.19 5.19 0 0 1-.76-2.27c-.03-1.54-.22-2.36-.86-2.89-.73-.7-1.37-1.5-1.87-2.36-.16-.5-.3-.8-.57-.94-.06-1.61-1.23-2.4-1.97-1.98-.63.14-1.23.2-1.9.11v-.36c.83-.47 2.27-1.93 3.72-3.54.54-.67.8-.4 1.33.14l2.08 2.18c-.06 1.08.1 1.78.83 1.7.5.87.75 1.72.28 2.08-.47.4-.84.67-.84 1.23.1.83 1.08 1.7 2.14 2.1.1.04.27-.02.33-.16.25-.77.28-1.64-.03-2.5l-.36-1.23c-.06-.5 0-.9.03-1.27.1-.98.14-1.5-.91-2.25-1.3-1.34-2.4-2.7-3.3-4.14.02-1.9-1.62-2.4-2.65-.34l-2 1.41c-.5.32-.83-.2-.83-.74-.2-2.5-1.9-4.52-3.78-6.44-1-3.04-2.37-5.59-2.87-7.92 1.9.2 3.34.56 3.91 1.12.84.9 1.9 1.38 2.17.73.11-.2-.5-.56-.78-.87.31 0 .75.3 1.22.78.85 0 1.11-.64.87-1.5.1-.7.08-1.25-.23-1.48l-.7-.4a22.2 22.2 0 0 1-2.94-3.95.77.77 0 0 1-.13-.44 2 2 0 0 0-.73-1.58l.27-.14-.03-.2.6.14-.6-1c-.33-1.23-1.47-1.44-3.17-.94-.24.06-.53-.21-.83-.53-1.08-1.03-2.22-1.6-1.81-.83.06.13.4.5.03.47l-1.84-.3c-.4-.07-.47.07-.36.27.33.36.67.7.8 1.1l-2.33.14c-.47.03-.87.23-1.3.2-1.27-1.06-2.84-.26-4.48.97l-.23-.1-.03-1.9h.2l-.17-1.25h.14c.13-1.88-.23-3.06-.94-3.91-.14-.56.44-.5.56-.67.53-.67.5-1.44.5-1.84-.1-.8-.37-1.06-.78-.8h-.47c-.5-.08-.9-.24-1.1-.47a1.43 1.43 0 0 0-.78-.28zm-.59.83c-.6.54-1.2 1.06-1.86 1.57-.95.54-1.78.67-2.55.4-.44-.2-.87-.47-1.28-.77-.1-.17-.2-.28.28-.17.36.27.86.33 1.36.33l.05.26c.8 0 1.64-.36 2.47-.92-.03-.03-.2-.07-.36 0-.6.3-.54.09.6-.48.17-.1.3.04.58-.06l.71-.16zm1.32.01c.22 0 .43.02.65.06.84.3.5.56-.03.37-.33-.2-.74-.17-1.2 0-.03.33-.6.07-.94.3-.24.1-.27.03-.13-.17.3-.27.64-.5 1.03-.53.2-.02.41-.03.62-.03zm1.62.05c.1-.02.25.09.4.33-.17.17-.2.41-.2.91 0 .33-.14.58-.4.73-.18.08-.24 0-.17-.23l.25-.5c.1-.44.06-.71 0-.8-.04-.27.01-.42.12-.44zm-.83.62c.26 0 .47.03.5.26.03.3-.03.54-.24.67.1-.64-.2-.57-.26-.93zm-1 .05.36.01c.43.14.64.37.67.67-.1.3-.24.47-.44.53-.1-.53-.3-.83-.6-.93a.88.88 0 0 0-.32-.04v-.2c.11-.03.22-.04.33-.04zm-.55.04v.2l-.25.07c-.14.03-.28-.07-.04-.13.13-.08.17-.11.3-.14zm-20.01.09c.04-.02.12 0 .17.06 1 1.25 1.94 2.42 3 3.81 0 .26-.1.38-.36.38-1.1-1.56-1.94-2.84-2.78-4.05-.08-.11-.07-.18-.03-.2zm125.92.18a36.9 36.9 0 1 0 0 73.8 36.9 36.9 0 0 0 0-73.8zm-107.27.17c.1 0 .16.06.16.14 0 .06-.06.13-.16.13-.06 0-.12-.07-.12-.13 0-.08.06-.14.12-.14zm1.84.11c.25 0 .37.37.05.66-.13.14-.3.2-.47.3-.42.33-.9.46-1.36.6-.6.17-.67.1-.17-.23.17-.14.3-.23.47-.33.37-.23.78-.3 1.14-.34-.58-.36-1.67.2-2.78.73-.33.17-.44.06-.16-.2.44-.39.7-.5 1.3-.75a4.2 4.2 0 0 1 1.7-.3c.1-.1.2-.14.28-.14zm1.15.54c.04 0 .07 0 .09.03.06.05.03.18-.03.25-.1.06-.2.09-.23.03-.03-.03-.03-.14.03-.25l.14-.06zM33.26 7c.03.03-.03.11-.18.26-.33.32-.77.5-1.07.73-.3.21-.73.47-1.48.27-.36-.09-.22-.3.11-.33.36-.03.86-.17 1.53-.47l.78-.37c.18-.08.29-.11.31-.09zm4.68.38c.04 0 .07.02.09.05.03.06 0 .2-.14.23-.09.06-.2.06-.23-.03-.07-.08 0-.17.14-.23.05-.02.1-.02.14-.02zm-1.19.08c-.09.4.22.7.05 1.1-.1.37-.87.3-.87-.02-.01-.58.32-.96.82-1.08zm-2.98.27c.05.01.08.03.09.06 0 .06-.08.17-.17.17-.1.03-.2 0-.23-.06 0-.08.06-.14.17-.17.04-.01.1-.01.14 0zm3.47.1c.04.01.08.04.12.1.21.16.33.4.33.64.03.24-.24.44-.4.24-.17-.21.04-.43-.13-.71-.12-.2-.04-.32.08-.27zm-1.72.37c.04-.01.06 0 .1.03.07.03.07.12 0 .2-.07.1-.17.14-.2.09-.06-.03-.06-.14 0-.23a.32.32 0 0 1 .1-.1zm1.04.84c.3 0 .47.06.47.36s.04.62-.03.9c-.1.27-.14.24-.47.27-.37 0-.5-.17-.91.06.24-.56-.03-.8.1-1.23.17-.3.44-.4.84-.36zm.8.03c.07-.03.2 0 .4.09.27.24.3.4.18.54.27.26.27.64.03 1.07-.17-.14-.38-.07-.5-.28-.03-.13-.14-.06-.08-.56a.95.95 0 0 0-.06-.57c-.05-.17-.04-.26.03-.3zm-17.61.86.73.14c.27.2.24.27-.06.3-.61-.09-.94.03-1.11.44-.23.32-.34.35-.29-.15.1-.47.4-.7.73-.73zm15.38.21c.06 0 .1.02.12.05.05.06-.03.17-.2.24-.13.03-.3.03-.33-.03-.03-.08.03-.16.2-.21a.53.53 0 0 1 .2-.05zm-14.68.35c.16.14.2.27.16.44-.6 0-1 .34-1.27.91.44-.47.9-.8 1.36-.8.23.08.3.24.3.4-.19-.07-.33-.04-.43.07-.11.16-.4.36-.8.64.3-.08.66-.2 1.1-.5.23.06.27.2.21.47a.63.63 0 0 1-.44.31c-.29-.03-.4.1-.33.45.06.5-.17.57-.64.24l-.53-.69c-.4-.4-.47-.74-.23-1.03l.5-.6c.3-.23.67-.34 1.04-.3zm16.03.25.38.01c.7.1 1.2.35 1.41.68v.2l-1.08.33.06-.66c-.3-.1-.5-.03-.6.24l-.03.23a1.34 1.34 0 0 1-.37-.3c-.13-.14-.36-.07-.83-.04l-.3-.03.2.3c-.14.11-.26.28-.37.48.14 0 .26 0 .4.06.33.22.7.2 1.02.1v.9l-.2.03c-.16.08-.19.27-.07.33l.58.28c.24.09.35-.22.35-.4l.13-1.03.47.21c.17.03.3 0 .5-.07v.8l-.18.21c0 .24-.06.41-.26.5 0 .3-.03.5-.13.54-.34.37-.44.63-.85.93-.23.03-.44.03-.64-.06-.27-.16-.5-.33-.64-.53l-.2-.07.07-.28-.2-.03.08-.27-.26-.02.1-.27-.2-.13.17-.44-.2-.08.25-.33h-.36l.27-.2-.3-.08c-.07-.8.05-1.4.43-1.8.5-.13.99-.23 1.4-.24zm-2.31.25c.07 0 .14.07.16.19.06.47 0 .83-.23 1.07-.18.1-.41-.01-.27-.21.22-.33.3-.58.22-.86-.01-.14.05-.2.12-.2zm2.87.44c.03-.02.05 0 .05.08 0 .13 0 .23-.03.33h-.23c0-.07.03-.13.03-.24.08-.08.14-.15.18-.17zm-1.32.35c.17.02.3.12.28.21 0 .1-.14.22-.3.17-.18 0-.31-.1-.28-.21 0-.1.14-.2.3-.17zm105.97.21a31.02 31.02 0 1 1 0 62.05 31.02 31.02 0 0 1 0-62.05zm-120.33.06c.06 0 .16.08.16.22 0 .09-.1.2-.16.2-.1 0-.17-.11-.17-.2 0-.14.06-.22.17-.22zm16.44.05c.15 0 .26.1.26.2s-.14.16-.26.13c-.17 0-.27-.09-.27-.2 0-.05.13-.13.27-.13zm-1.02.05h.25c-.03.37-.07.75-.2 1.4-.08.11-.14.05-.21-.07.03-.44.09-.8.16-1.33zm-15.13.41c.3-.02.6.1.87.32.34.27.25.3-.16.3-1.14 0-1.58.56-1.37 1.42.1.28-.1.41-.3.14-.44-.5-.34-1.14.13-1.7.25-.3.54-.45.83-.48zm12.25.24c.06-.02.12.04.15.21.23.9.64 1.76 1.54 2.6.36.3-.04.57-.37.27-.9-.78-1.17-1.84-1.36-2.8-.04-.16 0-.26.04-.28zm13.52.35c1.03.2 1.94.33 2.5.8.34.24.08.47-.17.3l-.7-.36c.04.3-.22.17-.63-.17-.27.26-.6.14-.97-.27l.24.67c.03.13-.09.13-.16.03l-.45-.56c-.22-.32-.06-.47.34-.44zm-11.14.24c.08-.01.1.01.1.1 0 0-.04.05-.1.05a.3.3 0 0 1-.09-.03c0-.09.06-.12.1-.12zm15.98.58c.32 0 .66.06 1.04.27l.48.53c.3.71.02 1.05-.37.53-.2-.29-.03-.56-.53-.8.26.5.47 1 .47 1.57.77.75.06.9-.14.43l-.3-1.36c.06.66.1 1.16 0 1.16-.23 0-.1-.45-.2-1.03-.07-.24-.13-.67-.27-.7-.58-.21-1.1-.04-1.53 0 .73-.04 1.23 0 1.4.2.24.33.28.71.17 1.05-.16.27-.25.2-.25-.14l-.1-.44c-.04-.23-.31-.27-.68-.23-.22.03-.5.1-.75-.07-.11-.06-.34-.17-.04-.23-.38-.2-.24-.47 0-.5.57-.02 1.06-.22 1.6-.24zm-30.4.05a.8.8 0 0 1 .28.05C30.94 25.7 41.61 40.8 50.8 53.63l.2-.14.33 1.35-1-.58.06-.22C38.47 37.79 28.33 24 21.64 14.59c-.06-.37-.01-.58.22-.58zm26.76.06c.12.03.23.17.26.33.09.2-.1.27-.23.13-.1-.1-.26-.33-.14-.44a.15.15 0 0 1 .11-.02zm-12.38.04c-.16 0-.32.02-.47.06.26.29.15.36.04.53.34.09.67.1.98.1.5-.31.47-.51-.08-.63a1.95 1.95 0 0 0-.47-.06zm.2.22c.09 0 .19.02.28.07.11.06.08.16-.03.22a.74.74 0 0 1-.36 0c-.1-.09-.03-.16-.14-.22a.43.43 0 0 1 .25-.07zm5.34.07c.13.03.33.06.6.03.27.16.17.3-.13.36-.14-.09-.28-.14-.41-.08-.3.08-.34.28-.55.34l-.12-.18c-.4.27-.67 1-.96 1.38l-.07-.37c-.2.03-.34.47-.64.7.03-.26-.03-.4-.14-.4-.5.34-.86.5-1 .37 0-.24.87-.85 2-1.62.5-.41.98-.53 1.42-.53zm-13.43.01c.19.03.37.08.56.17.91.56 1.23.4 2 1 .67.5 1.61.92 2.75 1.33.2.06.17.17-.17.34-.54-.37-.94-.6-.59 0-.08.03-.14 0-.2-.1-.6-.52-1.07-.8-1.4-.77-.43-.53-.63-.56-.54-.13-.04.16-.1.09-.24-.08-.5-.73-.73-.83-.7-.3 0 .1-.07.1-.21-.06-.44-.8-.53-.84-.33-.06-.03.06-.14.06-.23-.06-.37-.73-.4-.67-.4-.25-.56-.8-.7-.66-.56-.13-.36-.53-.55-.56-.55-.14-.3-.3-.53-.27-.77-.06-.14-.05-.13-.1.03-.21.48-.38 1-.57 1.55-.49zm17.23.05c.3 0 .63.01.97.04.6.08.58.53-.06.5-1.58-.07-2.67-.03-3.44.47a8.57 8.57 0 0 1 3.17-.13c.17 0 .14.09.03.16-.1.06-.27.14-.42.1l-.95-.1c-1.2-.03-2.27.22-3.04 1.14h.24c0 .06-.14.26-.34.37-.16.1-.16.27-.22.36-.14.2-.25.36-.3.56l.27.1c-.44.57-.73.93-.8.77.05-1 .39-1.9 1.02-2.72.64-.8 1.74-1.6 3.87-1.62zm-15 .24a5.4 5.4 0 0 1 2.17.73c.03.1.06.17-.06.1-.28-.2-.5-.3-.72-.3.08.3.04.44-.09.4-.25-.48-.5-.54-.7-.44-.07.03-.1.06-.18.02-.2-.44-.3-.43-.4-.27-.19-.13-.19-.24-.02-.24zm7.1.3c.1.01.11.17.04.28-.2.22-.36.22-.53.53-.03-.26.07-.53.37-.78.05-.03.09-.04.12-.04zm10.9 0 .07.03c-.1.56 0 1.28.33 1.94.06-.13-.1-.8-.14-1.36v-.52l.28.08c.03.67.27 1.3.56 1.37a2.24 2.24 0 0 1-.27-1.25l.36.1c0 .7.23 1.46.56 1.51-.3-.4-.3-.94-.26-1.36l.06.02c.07.28.17.54.3.67.14-.16.07-.5-.02-.88.36-.2.8-.17 1.27.14.17.21.1.3-.14.3h-.22l.53.23c.03.06.14.14-.17.17l-.2.16.7.06c.24.11.2.17.14.28l-.17.2c.6 0 1.25.13 2 .53-.03.27-.33.22-.89-.06.14.33.67.36.64.56-.06.36-.87.03-1.25.5l.9.03c.2.12.13.22-.17.22.47.57.84.73.97.34.14-.3.27-.3.4 0 .57.33.66.36.33.44l-.53.1.64.11c.16.06.16.2.06.3-.44.07-.47.14.33.17.33.17.47.33.33.47-.7.03-.66.12.17.2.2.1.27.24.23.33-.44.1-.38.2.16.2.08.1.14.17.04.27-.5.14-.43.2.2.2.04.23.4.2.54.5.53-.1.77.27.3.27l-.03.1c.78.02 1.11.22 1 .7-.07.19-1.1-.4-.66 1.2l.16.16c.3.06-.03-.75.47-.67.06.03.14.27.03.67-.1.36-.33.53-.7.3-.33-.24-.53-.47-.5-.73l.04-.5c-.37.03-.44-.21-.48-.56 0-.08-.13-.03-.09-.14-.6-.1-.86.1-1.03.53-.03.17-.16.03-.22-.13.03-.1-.22.04-.34-.03-.1 0-.08-.23-.17-.2-.06 0-.06.1-.2.1-.09-.04-.07-.28-.27-.07-.13.14-.16.14-.2-.06.04-.17.17-.5-.19-.03-.14.08-.17.08-.23-.1-.2-.57-.33-.6-.4-.1-.1.2-.19.25-.19-.06-.2-.86-.24-.86-.17-.03-.03.37-.13.34-.33-.1-.23-.7-.33.07-.5-.28-.24-.4-.06-.97-.47-1.14l.23 1.17c0 .17-.26.2-.3-.07-.14-.78-.64-2.11-.54-1.67l.3 1.6c.03.14-.33.07-.4-.13l-.4-2c-.1-.56-.1 1.07.14 1.77 0 .1-.28.11-.25-.03 0-.16-.3-2.06-.39-1.97-.24.23.4 2.14-.1 1.84-.07-.03-.25-1.95-.3-1.98-.04 0 0 1.84-.07 1.8-.53-.66.03-2.46-.33-2.57-.06 0-.23 2.2-.3 2.14.22 1.7 1.6 1.77 1.5 2.27l-.98-.5c.26.5.67 1.04.94 1.61-.3.1.03.5.23.7-.3-.03-.23.17.34.7.13.1.16.21.13.3-.7-.17-.77-.17.37.75-.7-.1-.75-.04.06.5.13.09.3.3.33.5.03.13-.09.06-.17.06-.13-.07-.33-.22-.4-.25-.2-.03-.07.25.86.94.23.22.33.37.17.44-1.14-.7-1.08-.53.16.54.3.45.34.66.23.74-1-.84-1.67-1.37.08.36.3.3.36.5.13.53-1.74-1.3-.8-.42.37.78.07.06 0 .16-.08.12-1.67-1.23-1.73-.94.03.9.06.18.17.31.1.45-.04.07-.16 0-.24-.03-1.2-1.14-1.1-.9.28.97.21.3.3.56-.03.4-1.52-1.7-1.98-2.07-.05.53.21.33.25.5-.03.39-1.36-1.87-1.4-1.64-.07.36.09.23.09.28 0 .23-1.25-1.5-1.61-1.87-.06.33.2.4.16.47-.04.28-1.5-1.88-1.53-1.64-.07.3.14.23.2.36-.03.27-1.75-1.97-1.75-1.9-.06.23.03.53.03.5-.3.23-.17-.2-.17-.37-.34-.53-1.08-1.3-1.2-1.2.06.47-.13.13-.3.14-.5-.03-1.1-1.44-1.2-1.44-.33-.06l-.6-.1c-.1-.2-.2-.3-.33-.43-1.03-1.02-1.41-1.11-.36.2.03.04-.06.05-.03.08l-1.17-.2a.55.55 0 0 1-.43-.24c-.5-.86-.8-1.2-1.63-2 .06.3.7.84 1.2 1.67.13.53-.48.3-.67.2-.37-.5-.5-.58-1.03-1.2-1.52-1.77-3.11-3.78-4.42-5.17.06-.25.06-.5.1-.75a27.06 27.06 0 0 0 4.32 5.02c-.14-.66-2.28-2.5-3.59-4.24-.27-.46-.5-.9-.66-1.28.03-.2.03-.36.07-.59.9 1.84 2.34 3.54 4.34 5.28-.22-.6-2.3-2.28-3.41-4.05-.4-.7-.7-1.27-.87-1.73v-.3c.91 1.8 2.48 3.67 4.36 5.28-.22-.6-2.34-2.34-3.39-4.04-.44-.74-.7-1.3-.89-1.77v-.34A21.5 21.5 0 0 0 47.25 33c-.2-.57-2.6-2.69-3.6-4.31a13.3 13.3 0 0 1-.92-1.84v-.45c.73 1.74 2.61 4.05 4.45 5.55-.2-.56-2.5-2.47-3.45-4.05a9.5 9.5 0 0 1-.92-1.94c0-.17 0-.37.03-.5.63 1.77 2.4 3.9 4.28 5.33-.22-.5-2.36-2.22-3.22-3.7-.56-.97-.84-1.6-1.03-2.06 0-.21 0-.36.03-.57.53 1.74 2.2 3.83 4.08 5.3-.14-.5-2.14-2.06-3-3.47-.64-1.08-.84-1.77-1.05-2.25v-.1c.03-.2.03-.44.07-.64.37 1.75 1.98 3.98 3.87 5.52-.13-.44-1.97-2-2.73-3.32-.73-1.23-.9-1.97-1.14-2.38.58-4.78 2.61-7.62 5.59-8.12zm-6.97.28c.36-.03.44.06.17.3l-.48.24c.1.21-.2.82-.4.88-.17.03 0-.57-.28-.09l-.56.5c-.4.14-.3-.27-.08-.1l.4-.54c.36-.5.8-.86 1.23-1.2zm6.57.01c-.17.56 0 1.37.54 2.03.03-.12-.16-.62-.3-1.09-.1-.44-.14-.86-.24-.94zm-26.52.23a13.56 13.56 0 0 1 2.76 3.78v1.24l-.4-1.41c0 .98-.03 1.6-.13 1.43l-.34-2.02-.22.86-.2-1.23c-.17-.13-.21.64-.17 1.7-.3-.3-.27-1.16-.22-2.14l-.34.93c-.2-.5-.09-1.17 0-1.8-.2-.17-.33.16-.4 1.16a3.3 3.3 0 0 1-.05-1.83l-.23.5-.06-1.17zm5.2.16a6.99 6.99 0 0 1 3.45.93c1.56.87 3.05 1.58 4.44 1.2.28-.06.3.14 0 .24l-.97.29c-.2.08-.23.2-.33.14-.4-.17-.57-.24-.64-.47h-.4c.2.3.2.44.08.33l-.71-.5c-.2-.14-.27-.1-.17.06l.14.21c.07.1-.06.17-.23.03l-.8-.66c-.2-.19-.34-.19-.3 0l.05.27c.03.14-.33-.17-.6-.5-.1-.14-.26-.14-.26 0v.3c0 .3-.58-.5-1.03-.97-.14-.13-.34-.13-.28 0 .13.44.23.67.13.55l-.76-.67c-.14-.14-.44-.23-.37-.03l.23.6c.03.11-.5-.19-1.06-.72h-.2c-.38 0 .37.53.26.64-.17.09-.37-.03-.53-.37-.1-.2-.21-.24-.44-.2-.14.04-.26.04-.44 0-.37-.12-.37-.28.04-.4a5.57 5.57 0 0 1 1.7-.3zm17.42 0c.23 0 .46 0 .7.04.6.06.6.42.27.4a4.77 4.77 0 0 0-2.75.33c-.33.16-.25-.02-.06-.14a3.96 3.96 0 0 1 1.84-.62zm3.3.19c-.06.5.17 1.14.7 1.58 0-.1-.2-.47-.33-.8-.12-.39-.26-.75-.37-.78zm-2.3.33c.4.03.33.44-.03.4-.3-.05-.64.09-.94.16-.37.11-.78.14-1.1.34-.68.36-1.27.97-1.81 1.8-.2.1-.23.03-.14-.2.67-1.2 1.47-1.83 2.3-1.9l.04-.05c-.46-.1-1.02.09-1.86.86-.1.1-.13 0-.03-.27.6-.7 1.64-1.17 3.57-1.14zm1.64.14c-.03.59.3 1.36.94 1.87 0-.11-.3-.58-.5-.98-.2-.47-.3-.83-.44-.9zm-8.11.4h.13c.07.07 0 .17-.1.31-.1.1-.24.14-.3.1-.04-.08-.01-.22.1-.31a.84.84 0 0 1 .17-.1zm7.55.13c-.05.71.4 1.58 1.2 2.2-.04-.17-.44-.67-.7-1.2-.28-.5-.4-.94-.5-1zm-2.41.14c.3.03.42.13.2.39a5.8 5.8 0 0 0-2.12 1.67c.08.3-.06.57-.4.77 0 .5-.3.75-.8.8l-.72.95c.16.23-.1.6-.63 1.13-.33.37-.47.28-.4-.33.4-1.1 1.16-2.7 1.54-2.7.2 0 .2-.07.26-.44.03-.27.3-.21.23 0-.05.26.03.29.18.1.85-1.37 1.75-2.07 2.66-2.34zm1.9.39c-.01.83.54 1.84 1.4 2.58 0-.21-.53-.8-.86-1.41-.3-.6-.4-1.05-.53-1.17zm-1.51.27c.23.03.13.3-.2.3s-.8.31-1.56 1.28c-.21.28-.44.03-.17-.3a4.24 4.24 0 0 1 1.58-1.2.72.72 0 0 1 .35-.08zm6.85.32c-.05-.01 0 .73-.03 1.11-.03.33 0 .67.17 1 .14.35.2.41.2.3-.1-.72-.23-1.36-.2-1.97.03-.27-.03-.38-.13-.44h-.01zm-5.82.02c0 .94.64 2.08 1.67 2.86-.03-.2-.67-.89-1.03-1.56-.37-.66-.46-1.17-.64-1.3zm5.38.02c-.03.02-.03.59-.07.87-.03.3 0 .58.13.84.11.27.19.34.19.24-.08-.6-.17-1.1-.14-1.58.03-.23-.03-.3-.1-.36h-.01zm-.36.02c-.06.02-.06.47-.09.68-.03.22-.03.42.08.64.07.25.12.28.12.2-.03-.45-.1-.87-.03-1.23.03-.17-.03-.23-.06-.29h-.02zm-22.78 0c.1.06.16.14.22.17l.17-.17c-.03.23-.1.3-.27.46l.09-.26a.67.67 0 0 0-.21-.2zm1.07.05a4 4 0 0 1-.2.6l.23.2c.06-.06.14-.13.17-.2 0 .1 0 .2-.03.3h.02l-.04.12-.03-.05c-.06.17-.16.27-.33.44.05-.24.08-.4.21-.58l-.24-.16c-.17.36-.4.66-.73 1.1.23-.7.47-1.24.97-1.77zm15.3.19c.18-.02.15.19-.08.64-.97 1.37-1.94 3-2.8 3.48-.4.03-.7.27-.95.63l.6-.3c.31-.03.34.06.13.26-.5.27-1.32 1.58-1.53.73-.34.63-.9.53-.94 1.16l-.08.84c-.13.23-.24.23-.36 0-.1-1.2.16-1.91.73-2.3 1.56-.92 2.1-2.28 2.59-2.25a12 12 0 0 1 2.17-2.61c.25-.18.43-.27.53-.28zm-4.75.02c.1 0 .34.2.5.5h-.43c-.13-.27-.16-.5-.07-.5zm12.45.2c-.06.01 0 .68-.03 1-.03.33.03.6.17.9.15.31.24.37.21.27-.1-.67-.24-1.25-.21-1.78 0-.23-.06-.33-.14-.4zm-6.7.09c.03 1.04.77 2.3 1.9 3.21-.04-.22-.81-1-1.2-1.77-.43-.73-.54-1.28-.7-1.44zm-14.13.29c.37.92.3 1.2-.27 2.17.33-.8.36-1.19.27-2.17zm8.53.06h.45c.06.16.14.3.14.4h-.36c-.08-.1-.14-.2-.2-.34-.03 0-.03-.03-.03-.06zm-7.24.07c.17.75.23 1.28.14 1.78.09.03.21.09.3.09.03-.08.1-.17.17-.27l-.1.3.23.03c.07-.21.1-.44.2-.7 0 .27-.03.49-.03.76.1 0 .17.03.26.03 0-.17.05-.36.05-.56.06.24.06.4.09.6l.33.02v-.76c.08.3.14.53.17.76.13.03.26.03.4.03 0-.26 0-.5.04-.8.07.3.1.56.16.8h.34v-1.2c.14.47.2.84.23 1.17l.3-.03c0-.27-.06-.56-.1-.86.14.3.25.57.28.83.08 0 .12-.03.2-.03-.03-.29-.1-.59-.14-.92.14.33.23.59.3.86.07 0 .14 0 .2-.03-.07-.47-.1-.97-.2-1.53.76 1.9.76 2.77.07 4.72.16-.7.22-1.37.2-2.07l-.17.06c-.03.37-.14.8-.34 1.35.1-.44.17-.88.14-1.3-.06.03-.14.07-.2.07-.04.3-.13.63-.27 1.07.06-.37.1-.7.1-1.05l-.3.03c-.03.44-.1.9-.21 1.5 0-.5-.03-1-.03-1.47h-.33c0 .49-.07.99-.17 1.68-.05-.6-.05-1.16-.08-1.74-.09-.03-.2-.03-.33-.06 0 .53-.06 1.06-.17 1.8-.03-.63-.06-1.22-.06-1.83l-.3-.1c-.03.5-.14 1-.26 1.66 0-.6 0-1.12.03-1.74l-.3-.1c-.05.67-.1 1.26-.14 1.98-.1-.87-.17-1.47-.1-2.06a.6.6 0 0 1-.25-.14c-.17.8-.24 1.48-.17 2.3a4.05 4.05 0 0 1-.03-2.36c-.06-.08-.13-.1-.2-.14-.1.27-.25.58-.46.91.16-.33.24-.67.33-.97l-.33-.2a4.8 4.8 0 0 1-.61 1.47c.44-1.06.47-2.06.5-3.33.1.5.17.9.17 1.26.13.07.22.09.36.16.06-.56.1-1.09.1-1.73zm20.03.02c-.05.01.01.58.01.86-.04.32.02.55.15.84.17.24.25.3.22.2-.1-.6-.23-1.1-.23-1.57 0-.22-.08-.3-.14-.33h-.01zm-30.98.2c.2-.04.4.17.64.63.63 0 .76.97.66 2.4l-.6-1.6v1.02c-.4-1.74-2.98-.71-2.4-1.18.5-.77.9-1 1.17-.4.17-.53.34-.82.53-.87zm23.42.01c.06 1.14.87 2.5 2.17 3.54-.06-.28-.94-1.14-1.4-1.98-.46-.83-.6-1.4-.77-1.56zm-6.22.1c.05-.04.2.13.37.36.13.27.2.47.13.5-.03.03-.2-.14-.36-.37-.14-.27-.21-.45-.14-.5zm-.67.11c.3.1.5.37.78.8l-.06.68c.06.2.06.36-.05.5-.12-.17-.27-.23-.44-.14l-.03.53c-.1-.23-.22-.27-.36-.1l-.47.45-.14-.3-.06-1.34.2-.14-.06-.37c.16.09.27.2.33.28.06-.27 0-.53-.14-.8.34.17.54.47.58.9.1-.28.1-.58-.08-.95zm1.3 0c.04-.01.2.1.31.32.1.2.14.37.1.4-.04.03-.17-.1-.28-.3-.12-.2-.17-.42-.12-.42zm.72.05h.3c0 .1 0 .17-.07.17-.08 0-.14-.06-.23-.17zm12.87.03c-.03.03.06.52.06.77 0 .28.03.5.2.75.13.2.2.27.16.16-.1-.5-.27-.94-.27-1.38 0-.2-.05-.27-.14-.3zm-22.35.03c-.01.41-.12.55-.42.82.03-.14.06-.27.1-.36l.06-.08c0-.03.03-.1.06-.14l.2-.24zm-1.96.07c-.04.23-.06.3-.22.48.01-.22.09-.34.22-.48zm15.98.23c.09 1.23 1 2.75 2.4 3.84-.07-.29-1.08-1.2-1.58-2.14-.52-.9-.63-1.48-.82-1.7zm8.84.17c-.07 0 .03.47.03.7.02.21.08.4.22.6.13.17.2.25.16.17-.14-.45-.27-.83-.27-1.2-.03-.16-.1-.23-.14-.27zm-9.18.47c.14 1.38 1.17 2.97 2.67 4.17-.07-.33-1.17-1.33-1.77-2.33-.53-.98-.67-1.63-.9-1.84zm9.65.05c-.07.02.03.4.06.59.02.2.08.33.22.5.13.17.2.2.16.14-.12-.37-.27-.72-.3-1 0-.14-.08-.22-.14-.23zm-23.42.03c0 .5-.05.63-.41.75-.1-.33.02-.56.41-.75zm-7.28.33c.09 0 .2.14.27.36.06.23.06.43.03.43-.09.03-.2-.14-.27-.37-.06-.2-.06-.39-.03-.42zm20.78.23c.14 1.47 1.28 3.21 2.91 4.5-.09-.36-1.3-1.42-1.94-2.5-.59-1.08-.74-1.73-.97-2zm-.88.36c.05.05.04.21-.04.5-.2.68-.55 1.21-1.25 1.55-.57.77-.94 1.03-1.14.73-.44.53-.9.86-1.23 1.17l-.28.83c-.14.2-.18.27-.22 0 .04-.74.23-1.08.54-1.27 0-.28.06-.47.27-.6.74-.33 1.24-1.04 1.86-1.24.22-.5.61-.76 1.14-1.47.19-.18.3-.25.35-.2zm.65.3c.14 1.58 1.37 3.45 3.14 4.86-.13-.41-1.42-1.58-2.13-2.75-.67-1.13-.78-1.83-1-2.1zm347.68.13c.07.5.25.94.59 1.35.3.38.7.66 1.2.88.5.2 1.12.3 1.86.3 1.1 0 1.96-.24 2.56-.7.63-.47.98-1.08 1.1-1.83h-2c-.14.24-.34.42-.55.51-.34.14-.7.21-1.1.21-.4 0-.75-.06-1.03-.18-.27-.12-.5-.3-.65-.54h-1.98zm-347.95.51c.23 1.67 1.64 3.81 3.5 5.31-.12-.44-1.66-1.8-2.4-3.05-.69-1.23-.83-1.93-1.1-2.26zm-.66.81c.06.02.1.16.1.4l-.23.64c.2.1.1.3-.04.49-.03.24-.03.5-.26.58-.08.89-.17 1.63-.44 1.86-.4.5-.53.44-.4-.23l.23-1.2c.03-.47.2-.9.5-1.27l.37-1c.05-.2.12-.29.17-.27zm84.98.1-.19.03-6.84 5.5-.03.07v1.75l.08.07h1.76l.07-.07v-.72h3.63v2.87h-.75l-.07.08v1.65l.07.07h.75V66.3c.88.61 1.79 1.16 2.73 1.66l.04-33.27h2.04v.52l.07.07h.19L131 69.04c.77.32 1.54.6 2.35.86l.03-34.63h.16l.08-.07v-.57l19.46.02.08-.08.04-.36-.06-.1L142 30.7l9.9.02.08-.08.05-.38-.06-.1-24.43-6.79h-.04zm-105.88.4c-.5.63-.6.9-.44.9.14 0 .78-.72.96-.54-.43.67-.03.47.71-.12.2.06-.26.53-.2.6.08.07.34-.15.87-.51.14-.1.44-.44.5-.27.03.2-.17.29-.27.44-.53.63-.41.53.53-.08.14-.07.33-.23.47-.17-.64.84-.36.67.56.1.14-.07.3-.3.47-.13-1.17 1.04-.97 1.17.53.44-.7.8-.53.82.58.12.09-.03.23 0 .36-.07-.5.5-.57.88-.33.74.36-.16.83-.36 1.06-.3-.47.46-.44.67.17.56.2.08 0 .3-.61.71-.1.17-.21 0-.3-.4-.08.24-.17.24-.28.1l-.13.86-.2-.03v-.5c-.1-.13-.2-.13-.3 0l-.17.67-.3-.17c-.1.23-.23.46-.47.63-.2-.28-.34-.2-.4.03-.13.03-.2-.08-.33-.03-.1.3-.2.36-.37.16-.27.17-.5.34-.77.61l-.14-.33c-.22.33-.44.53-.56.47l-.24-.25-.36.61-.61.17c0 .16.23.17.64.09.53-.06 1.56-.3 2.22-.5.67-.2 1.4-.3 2.2-.64.64-.3 1.37-.82 2.11-1.2.17.14.03.47-1.36 1.57l-.67-.2.37.5c-.17.17-.3.24-.48.2l-.59-.3.2.63c-.44 0-.64-.53-1.03-.3l.17.5-.9-.28.17.61-.77-.33-.17.33c-.25 0-.37.06-.41.17 1.77.3 3.72-.34 5.72-1.3.1-.04.13.02.13.2-.16.8-.74 1.5-1.63 2.13l.25-1.06c-.6.27-1.26 1.56-1.76 1.74l.53-1.4-1.57 1.3c-.14-.17.06-.54.4-1-.48 0-1.28 1.1-1.4 1.04-.34-.17.25-.5.39-.74-.44-.03-.73.36-1.1.57-.04-.2.19-.44.58-.8l-1.3.6c0-.22.5-.43.6-.77-.6.4-1.13.67-1.27.64l.41-.64-1.14.6.72-.73-1.2.57.33-.63-.88.56.37-.7c-.44.36-.84.6-1.08.6.23-.3.4-.52.36-.7-.4.34-.8.57-.97.57l.17-.56a2.9 2.9 0 0 1-1.1.7l.39-.67c.06-.1.04-.24-.1-.14l-.89.73c.21-.36.3-.6.17-.71l-.64.33.06-.36-.73.8c-.09-.03.05-.23.14-.6l-.7.54a3.13 3.13 0 0 1 1.99-1.6c1.06-.34 1.9-.37 2.56-.48 1.17-.17 1.91-.27 2.85-.7.44-.16.93-.36 1.48-.8.25-.2.16-.27-.14-.24l-1.21.07v-.53l-.47.64-.11-.64-.4 1.1-.16-1.26-.3 1.36-.17-1.33-.5 1.53-.14-1.61-.29 1.64-.3-1.67-.2 1.68-.35-1.57-.12 1.51-.44-1.53-.03 1.61-.5-1.53-.09 1.36-.33-1.33-.14 1.2-.27-1.13-.17 1.2c-.5-.94-.7-1.7-.37-2.14.5-.56 1.17-.7 1.84-.59.14-.23.41-.44.74-.64l.06.3.8-.27.07.28.86-.47zm20.06.22c.1 0 .14.18.06.3l-.55.87a3.6 3.6 0 0 1-.98 2.08c-.14.14-.37.14-.24-.08l.63-1.25-.8 1.1c-.23.3-.28.06-.17-.16l.55-1.3c.13-.48.36-.75.66-.78l.73-.7c.04-.05.08-.08.11-.08zm14.38.57c.07 0 .15.04.24.13l.69.69c.12.12-.34.27-.78-.14-.37-.35-.34-.68-.15-.68zm-17.08.01c.07.06.07.2-.03.3-.06.14-.2.17-.3.11a.25.25 0 0 1 .06-.3c.06-.11.2-.14.27-.1zm228.43.52a7.21 7.21 0 0 0-6.13 3.41 6.84 6.84 0 0 0-.9 3.5c0 2.04.66 3.7 1.97 5.01a6.82 6.82 0 0 0 5.03 1.96 7.6 7.6 0 0 0 2.98-.55 9.14 9.14 0 0 0 2.76-1.97l-1.7-1.78a7.3 7.3 0 0 1-1.99 1.49c-.6.27-1.27.41-2 .41-.87 0-1.64-.18-2.34-.58-.7-.39-1.24-.94-1.62-1.6a4.68 4.68 0 0 1-.58-2.34c0-1.26.43-2.32 1.29-3.19a4.32 4.32 0 0 1 3.19-1.29c1.5 0 2.83.64 4.03 1.9l1.76-1.67a8.77 8.77 0 0 0-2.6-2.03 7.5 7.5 0 0 0-3.15-.68zm-15.58.06a6.9 6.9 0 0 0-6.89 6.93c0 1.9.67 3.52 1.98 4.89a6.52 6.52 0 0 0 4.93 2.04c1.9 0 3.5-.67 4.82-2a6.68 6.68 0 0 0 1.99-4.88c0-1.95-.68-3.6-2.02-4.95a6.54 6.54 0 0 0-4.8-2.03zm47.76 0a6.9 6.9 0 0 0-6.89 6.93c0 1.9.67 3.52 1.97 4.89A6.52 6.52 0 0 0 299.6 39c1.9 0 3.5-.67 4.83-2a6.68 6.68 0 0 0 1.98-4.88c0-1.95-.68-3.6-2.01-4.95a6.54 6.54 0 0 0-4.81-2.03zm-171.05.3 13.12 3.38-5.99-.07-2.62-.8h-1.17l-.73.5h-2.46l-.15-3zm70.53.03v13.2h2.49V27.93h4.05v-2.46h-6.54zm8.45 0v13.18h2.52v-5.58c1.29 0 2.17-.07 2.65-.21a3.82 3.82 0 0 0 1.96-1.28c.49-.6.73-1.36.73-2.29a4 4 0 0 0-.55-2.14 3.11 3.11 0 0 0-1.5-1.28 8.94 8.94 0 0 0-3.1-.4h-2.71zm14.35 0-5.08 13.2h2.6l1.09-2.72h5.38l1.03 2.72h2.6l-5.07-13.2h-2.55zm13.85 0L231.5 36.3h-1.45v4.34h2.42v-1.97h9.08v1.97h2.42V36.3h-1.47l-4.25-10.83h-2.53zm38.35 0v2.47h2.34v10.73h2.55V27.94h2.4v-2.47h-7.29zm8.95 0v13.18h2.52v-5.58c1.29 0 2.17-.07 2.65-.21a3.82 3.82 0 0 0 1.96-1.28c.49-.6.73-1.36.73-2.29a4 4 0 0 0-.55-2.14 3.11 3.11 0 0 0-1.5-1.28 8.94 8.94 0 0 0-3.1-.4H283zm25.75 0v13.2h2.18l4.92-8.27v8.27h2.51v-13.2h-2.1l-5 8.53v-8.53h-2.51zm11.34 0v2.47h2.34v10.73h2.55V27.94h2.4v-2.47h-7.29zm9.01 0v13.2h7.21V36.2h-4.7v-3.48h4.7v-2.4h-4.7v-2.4h4.7v-2.45h-7.2zm13.14 0-5.1 13.2h2.67l3.72-9.7 3.66 9.7h2.68l-5.08-13.2h-2.55zm9.15 0v13.2h3.7c1 0 1.79-.14 2.37-.4a3.86 3.86 0 0 0 2.17-3.63 4.04 4.04 0 0 0-2.57-3.83 8.01 8.01 0 0 0-2.6-.36h-.55v-4.98h-2.52zm10.44 0v13.2h2.54v-5.78h4.4v5.78h2.54v-13.2h-2.54v4.98h-4.4v-4.98h-2.54zm12.48 0v13.2h3.7c1 0 1.8-.14 2.37-.4a3.8 3.8 0 0 0 1.52-1.33c.44-.62.65-1.38.65-2.3 0-.95-.26-1.77-.76-2.45a3.75 3.75 0 0 0-1.8-1.38 8 8 0 0 0-2.61-.36h-.55v-4.98h-2.52zm10.07 0v13.2h2.5v-13.2h-2.5zm5.5 0v13.2h2.18l4.91-8.27v8.27h2.52v-13.2h-2.1l-5 8.53v-8.53h-2.51zm-350.15.14c.04.02 0 .13-.12.35-.17.33-.4.8-.4 1.63 0 .67-.83.55-.52-.22.3-.8.4-1.25.7-1.5.18-.2.3-.28.34-.26zm86.58.45-.1 2.4h-2.72l2.82-2.4zm-85.43.86c.1 0 .11.16.05.5a2.06 2.06 0 0 1-1.36 1.48c-.72.27-.92-.06-.45-.36.5-.3.95-.6 1.28-1.1.23-.34.39-.52.48-.52zm-7.44.08c.07 0 .13.15.13.4 0 .2-.06.36-.13.36-.08 0-.1-.17-.1-.36 0-.25.04-.4.1-.4zm-.41.14c.12 0 .16.1.16.23s-.06.27-.16.27c-.06 0-.14-.14-.14-.27 0-.14.06-.23.14-.23zm9.23.3c.12.01.17.29 0 .8a6.53 6.53 0 0 1-2.24 2.97c-.8.66-1.33 1.4-2.1 2.47-.2.3-.37.16-.17-.2a8.77 8.77 0 0 1 2.54-2.87c.8-.63 1.3-1.71 1.73-2.9.08-.2.17-.28.24-.27zm-8.19.15c.17 0 .3.08.3.14 0 .03-.13.1-.3.1-.13 0-.27-.07-.27-.1 0-.06.12-.14.27-.14zm217.71.02a4.42 4.42 0 0 1 4.37 4.49c0 1.26-.42 2.32-1.26 3.19a4.1 4.1 0 0 1-3.05 1.29 4.3 4.3 0 0 1-2.8-1 4.18 4.18 0 0 1-1.58-3.46c0-1.3.4-2.39 1.24-3.24a4.16 4.16 0 0 1 3.08-1.27zm47.76 0a4.42 4.42 0 0 1 4.37 4.49c0 1.26-.43 2.32-1.26 3.19a4.1 4.1 0 0 1-3.05 1.29 4.3 4.3 0 0 1-2.8-1 4.18 4.18 0 0 1-1.59-3.46c0-1.3.41-2.39 1.25-3.24a4.16 4.16 0 0 1 3.08-1.27zm-257.88.09c.19-.04.1.2-.03.46-.2.33-.34.44-.67.63-.4.34-1 .64-1.47.84-.58.2-1.1.53-1.6 1.14-.31.24-.45.13-.34-.34.27-.56 1-.92 2.05-1.26.7-.24 1.27-.74 1.77-1.33a1 1 0 0 1 .29-.14zm168.39.21h.71c.78 0 1.3.1 1.6.26.39.24.59.6.59 1.12 0 .3-.08.55-.22.76-.13.2-.33.35-.57.44-.25.1-.69.14-1.3.14h-.81V27.9zm75.5 0h.71c.78 0 1.3.1 1.6.26.39.24.59.6.59 1.12a1.2 1.2 0 0 1-.79 1.2c-.25.1-.68.14-1.3.14h-.81V27.9zm-250.6.21h1.25c.4 0 .47.2.2.58.12.67-.72 1.1-.69.03-.06-.2-.3-.3-.76-.3-.2-.06-.2-.27 0-.3zm-.54.04c.07 0 .13.07.13.13 0 .1-.07.17-.13.17-.03 0-.1-.06-.1-.17 0-.06.07-.13.1-.13zm7.84.56.06.2c-.15 1.56-.65 2.48-1.52 2.7l-1.13 1c-.37.2-.8.83-1.45 1.8-.39.17-.42.06-.2-.23.17-.3.5-.57.7-.83.17-.27.17-.5.37-.7.47-.63.97-1.17 1.56-1.6.67-.43 1.17-1.25 1.61-2.34zm180.89.25 1.76 4.54h-3.53l1.77-4.54zm13.85 0 2.87 7.35h-5.77l2.9-7.35zm-196.03.2c.12-.03.13.1 0 .37-.4.44-.83.63-1.3.7-.73.16-1.23.8-1.73 1.6l1.47-1.07c.33-.11.4 0 .2.27-1.58.8-1.37 1.8-2 2.05-.14-.17-.1-.4.07-.7l-.49.18c.17-.76.61-1.43 1.25-1.96.7-.54 1.47-.77 2.36-1.36a.59.59 0 0 1 .17-.08zm121.18 1.17-7.13 1.56.03 4.54-4.7 1.18.03 9.74-6.34 1.4v4.15l-4 .88.02 6.32-4.52 1 .03 9.37c.56.14 1.14.23 1.72.32l-.02-8.33 2.93-.65v9.3c.53.03 1.06.07 1.6.07V55.16l2.39-.53v16.46c.54-.05 1.08-.12 1.6-.2V50.12l4.72-1v20.7a29 29 0 0 0 1.61-.6V47.8l-.03-8.85 3.1-.77v29.66c.56-.3 1.07-.64 1.6-.99V33.25l4.6-1 1.6 2.47v26.76c.57-.65 1.12-1.33 1.62-2.04v-18.5l.5-.16 1.12 1.73.12 14.18c.65-1.18 1.2-2.44 1.69-3.72L167.9 42l-2.1-3.25v-.01l-1.13.38.02-4.82-2.55-3.95zm-32.54.35h1.8l-.39 2.21h-2.27v-1.44l.86-.77zm3.46 0 4.2.02 7.04 2.16-10.98-.12-.26-2.06zm-116.4.21c1.88.06 3.74.14 5.54.62 2.8.84 4.71.57 6.16-.42.44-.17.57 0 .36.5-.14.53-.5.73-.84.6-.13.33-.33.6-.59.8l.03-.69c-.27.47-.6.73-.94.78l.17-.7a2 2 0 0 1-1 1c.36-.58.44-.83.33-1-.44.53-.86.92-1.36 1.03l.22-.64c-.33.17-.5.53-1 .5l.43-.71-.78.33.11-.45-.7.42.28-.59-.8.34-.05-.41-.53.13v-.44l-.48.28-.07-.34-.64.28.03-.5-.47.22-.17-.22-.57.2-.1-.45-.5.5-.1-.4c-.2.15-.33.48-.56.45l-.14-.44c-.25.24-.47.59-.73.64l.07-.61c-.3.27-.55.74-.9.77l.14-.64c-.25.23-.44.67-.73.67l.23-.59c-.34.23-.8.74-1 .7l.12-.6c-.17.1-.3.34-.47.31l.13-.36c.34-.78 1.03-.91 1.87-.87zm25.65.18c1 1.26 2.97 3.65 4.11 5.04.6.74.58.7.91 1.08 0 .16-.13.09-.36.03-.34-.34-.3-.3-.6-.71-1.4-1.64-2.94-3.54-4.17-4.9l.11-.54zm-.15.69 3.91 4.77c.34.44.1.25.34.5.27.23-.3.23-.47-.08-.12-.17-.84-.87-.97-1.07-1.3-1.53-1.73-2.14-2.95-3.49.05-.2.11-.4.14-.63zm-1.07.15c.13.03.03.17-.07.24-.33.29-.7.49-1 .82-.3.29-.36.27-.2-.14a1.9 1.9 0 0 1 1.06-.9c.1-.03.17-.03.21-.02zm.6.44c.1.06.14.27.06.5-.06.2-.23.36-.33.33-.14-.04-.15-.29-.1-.47.1-.24.23-.4.37-.36zm-10.98.04c.04 0-.11.28-.34.55-.2.3-.4.5-.44.47-.03 0 .1-.27.3-.55.23-.3.42-.53.48-.47zm17.17.05c.03.09.3.36.5.67.17.27.23.42.3.5 0-.44-.33-.9-.8-1.17zm-5.92.17c1.11 1.33 1.67 1.97 2.64 3.17l1.06 1.27c-.13.08-.3.08-.47-.03-1.18-1.44-2.23-2.6-3.36-3.91.07-.17.1-.34.13-.5zm311.93.07h.52c1.82 0 2.73.64 2.73 1.88 0 .62-.18 1.06-.53 1.32-.35.26-1.05.38-2.1.38h-.62V32.7zm22.94 0h.52c1.8 0 2.71.64 2.71 1.88 0 .62-.18 1.06-.53 1.32-.35.26-1.05.38-2.08.38h-.62V32.7zm-336 .04c.04.04-.02.18-.2.42-.34.44-.53.97-.8 1.44-.11.21-.42.44-.34-.1.1-.63.4-1.2.93-1.57.23-.17.37-.24.41-.2zm6.82.42c.03.13.47.56.73 1 .23.4.33.67.44.76-.05-.63-.47-1.3-1.17-1.76zm-19.87.06c.03-.01.06 0 .07.01.08.1-.03.4-.2.67-.2.3-.43.47-.5.36-.05-.06.04-.36.2-.66.16-.23.33-.36.43-.38zm5.63 0-.22.66.8-.39c.4-.14.48-.03.17.33l-1.63.78c-1.3.74-2.61 1.17-3.95.77-.35-.14-.4-.3-.24-.6.17-.23.36-.4.58-.47v.43l.88-1.13-.46 1.3c.38-.77.73-1.21 1.03-1.18l-.6 1.18c-.04.14.04.2.2.17.4-1.08.78-1.67 1.04-1.7l-.53 1.6c.23-.5.4-.7.5-.59l-.12.5c.26-.52.47-.77.59-.66l-.06.45a.9.9 0 0 1 .4-.42l.16.36c.06-.3.23-.53.42-.7l.14.34c.2-.37.47-.71.9-1.03zm5.88.1c.03 0 .1.17.1.34 0 .2-.07.33-.1.33-.07 0-.09-.13-.09-.33 0-.17.02-.34.1-.34zm2.5.05c1 1.23 2.1 2.47 2.98 3.61-.1.1-.3.1-.56-.03-.91-1.12-1.75-1.99-2.61-2.99 0-.06 0-.1.03-.17.07-.12.1-.27.16-.42zm13.5.17c.07.01.14.13.14.38.06 1.1-.06 2.24-.2 3.4 0 .18-.28.48-.28.1.01-1.4.18-2.52.18-3.56 0-.22.08-.32.15-.32zm-28.36.15.06.01c.06.06 0 .3-.14.53-.16.23-.33.37-.4.3-.07-.05 0-.3.17-.52.1-.17.23-.3.3-.32zm-.67.17c.06.07 0 .27-.1.46-.14.17-.28.26-.34.23-.03-.06 0-.27.12-.42.14-.22.28-.3.32-.27zm21.18.02c.03.17.59.75.94 1.31.33.53.44.9.57 1a3.59 3.59 0 0 0-1.51-2.3zm-22.36.17c.3 0 .57.1.57.2 0 .13-.27.24-.57.24-.34 0-.6-.1-.6-.24 0-.1.26-.2.6-.2zm16.44.1c.78.98 1.47 1.7 2.25 2.68-.1.1-.23.1-.44 0-.64-.67-1.17-1.1-1.87-1.8 0-.27 0-.57.06-.87zm5.8.57c.03.23.7.8 1.09 1.5.41.67.4.84.58.97-.08-.97-.61-1.67-1.67-2.47zm-12.02.44c.08.06-.12.3-.4.53-.27.21-.52.37-.55.3-.06-.07.13-.3.4-.5.27-.24.54-.36.55-.33zm6.2.17c.57.57 1.07.9 1.6 1.47a.47.47 0 0 1-.5.07c-.33-.38-.67-.57-1-.9-.05-.2-.08-.45-.1-.64zm-8.49.66c.1 0 .17.06.17.17 0 .1-.06.2-.17.2-.07 0-.14-.1-.14-.2s.07-.17.14-.17zm-16.7.08c1.5 0 3.35.97 5.22 2.64-1.73.17-3.22.5-4.17 1.14l-.07-.2c.5-.47 1.31-.8 2.17-1.1l-.2-.04c-1.27.3-2.57.94-3.88 2.34l-.2.03a6.4 6.4 0 0 1 3.95-2.75l-.64.03c-.95.23-2 .9-2.88 1.8-1.55 1.59-2.8 4.03-3.4 7.5-.06.17-.16-.13-.2.06.17-1.47.46-2.91 1.04-4.22a12.4 12.4 0 0 1 2.76-4.04c.71-.67 1.3-.84 2.21-1.45h-.16c-.76.25-1.2.5-1.78.98a12.73 12.73 0 0 0-4.3 8.68c-.13.93-.6 1.72-.89 2.13-.54.67-.97.24-1.7 2.22l-.16.06c.1-.4.3-.97.5-1.26.24-.34.47-.5.77-.88a5.5 5.5 0 0 0 1.23-2.8c.17-1.04.37-2.37.67-3.25.33-1 .64-1.54 1.03-2.07 1.17-1.6 1.64-2.64 4.34-4.06l-.23.03c-1.97.77-3.2 2.14-4.8 4.78-1.24 2-.9 4.5-1.87 6.38-.3.64-1.11 1.58-1.5 1.97l-.17.03c.23-.75 1.06-1.36 1.47-2.12.26-.5.36-1.35.47-1.94.53-3.58 1.56-5.25 3.1-7.01h-.25c-3.2 3.5-2.73 5.98-3.44 8.37-.5 1.58-1.03 1.39-2.2 3.59-.03-.34.1-.64.16-.81.11-.33.44-.64.97-1.35.5-.7.93-1.87 1.14-3.67.06-.84.34-1.58.61-2.22.27-.7.47-1.16.77-1.66 1.25-1.98 2.34-3.24 3.89-4.09v-.13c-1.58.66-2.94 2.27-4 4.05-.61 1-.95 1.77-1.28 2.91-.26.85-.4 2.02-.7 3.19-.2.86-.67 1.4-1.06 1.9-.3.36-.53.8-.74.93.16-.57.09-1.13 1.03-1.83.27-.23.44-.53.53-.87.14-2.74.97-5.1 2.44-7.44-.53.16-.97.72-1.47 1.6.86-2.6 2.3-5.35 5.26-6.02.2-.04.4-.06.62-.06zm17.66.03c.06 0 .1 0 .12.03.06.1-.24.43-.71.77-.47.3-.87.47-.98.37-.04-.1.28-.44.75-.74.32-.23.64-.4.82-.43zm1.36.03c-.1.17-.16.33-.26.47l.1.08c.24-.25.53-.44.86-.55-.21.27-.4.47-.64.67l.19.13c.3-.27.66-.47.97-.6-.23.23-.47.5-.73.72l.24.14c.3-.23.67-.4 1-.47-.16.14-.35.27-.47.41.23-.07.5-.07.84-.09-.44.2-.72.26-1.05.4l.27.16c.34-.2.7-.3 1-.3-.22.14-.5.3-.77.44l.23.14c.3-.17.68-.23.97-.2-.28.09-.5.2-.74.33l.13.1c.3-.14.6-.2.9-.2-.28.1-.46.22-.7.33l.2.1c.27-.1.54-.1.77-.07-.2.08-.4.1-.6.21l.7.44-.13.06-1.06-.36c-.08 0-.1.03-.14.07 0-.04.03-.07.06-.1l-.26-.06c-.13.06-.3.16-.47.22.11-.13.17-.22.28-.3l-.28-.09c-.13.06-.3.17-.47.23.08-.1.17-.23.28-.34l-.28-.1c-.2.14-.36.26-.57.36.1-.16.21-.3.33-.44l-.35-.13c-.17.16-.33.3-.5.42.03-.17.14-.35.26-.5l-.33-.14c-.17.17-.37.34-.57.5.1-.2.2-.4.34-.57l-.53-.2c-.17.2-.41.4-.64.58.1-.23.2-.47.33-.67l-.06-.03c.06-.4.37-.71.78-.9l.07.03c.14-.12.3-.22.5-.33zm-2.86.05c.09 0 .2.09.2.22 0 .1-.1.2-.2.2-.14 0-.22-.1-.22-.2 0-.13.08-.22.22-.22zm9.16.09c.23.22.44.33.64.56-.5.03-.61-.08-.64-.56zm20.64.23c.13-.02.26.02.38.1.2.1.26.24.26.33l-.4.14.5.14c.28.22.04.65-.19.29-.2-.22-.44-.23-.67-.1 0 .3-.06.37-.24.14-.2-.27-.23-.6 0-.83.1-.12.22-.2.36-.21zm-20.7.98c.12 0 .25.04.32.12.9 1.25 2 2.37 3.14 3.57-.84-1.3-3-3.39-2.92-3.57.1-.17.34-.17.67 0 .74 1.1 1.55 2.03 2.58 3-.73-1.04-2.43-2.77-2.26-3 .03-.06.3-.13.44.03.33.53.73.94 1.17 1.53.3.37.7.78 1.1 1.14l-2.03-2.64c.06-.06.14-.09.2-.06.1 0 .2 0 .3.1.44.83 1.2 1.56 1.98 2.44L44.6 37.7c.03-.2.6-.09.72 0l1.45 2.08c-.61-1.44-1.48-2.14-1.04-2.1.43.05.73.43 1.1.93.24.34.5.58.66.8l-.92-1.54c0-.14.33-.06.62.1l.64.7-.3-.6c.04-.21.27-.1.45 0l.56.9.1-.07c-.34-.56-.57-.83-.4-.9l.5.07.47.53c-.14-.6.44-.47 1.36-.14.61.22 1.17.91 1.7 2-.13.07-.36-.24-.64-.56l-.39-.44c.67 1.14 1.34 2.25 1.44 2.8-.2.18-.94-1.1-1.77-2.57.44 1.17 1 2.2 1.17 2.67-.1.03-.4-.53-.84-1.24-.14-.2-.3-.3-.44-.53l1.08 2.13c.2.1.33.34.2.64-.2.37-.06.5.33.84.41.27 1.27.44 2.4.27 1.53-.21 3.08-.5 4.64-.53.33 0 .64.17.77.42.18.28.41.53.7.78-.76-1.2-.8-1.7-.12-1.28.6.37.92.97.83 1.87.17.47.1.56-.77 0-.33-.2-.36-.3 0-.47l-1.03-.8c.9 1.4.22 1.03-.44.06.5 1.1.13.7-.53.16h-.17c1.17.94.21.7-.56.14l-.15.07c2.04 1.45-.1.69-1 .11.63.58 1.36.97 1.2 1-.46.12-1.34-.27-2.34-.71.8.5 1.5.8 1.06.94-.17.09-.94-.27-2.27-.8-.34-.07-.45-.04-.31.1 1.17.43 1.84.8 1.7.97-.2.23-1.1-.21-2.38-.83-.37-.17-.79-.34-1.23-.56.73.76 3.64 1.8 3.03 2.1-.22.1-.72-.1-1.36-.43-.7-.41-1.56-.95-2.4-1.54-.7-.57-1.33-1.13-1.83-1.57l-.04.16c1.75 1.9 5.09 3.61 4.06 3.55-.41 0-.28.03-.61-.13-2.34-1.2-3.94-3.12-5.08-4.68l-.06.08c1.44 2.24 4.1 4.06 3.84 4.3-.26.22-1.95-1.16-3-2.33-.78-.8-.92-1.14-1.75-2.26l-.03.27c2.24 3.78 5.14 4.48 4.55 4.95-.17.14-.26-.03-.44-.14-2.67-1.6-3.42-3.5-4.81-5.17l-.08.14c.94 1.5 2.48 3.17 3.78 4.7.17.21.03.4-.14.32-1.44-.94-2.74-2.98-4.21-5.22l-.04.14c1.23 2.36 3.95 5.21 3.15 5a10.5 10.5 0 0 1-1.37-1.76c-.44-.64-.97-1.41-1.38-1.91l-.08.24c.69 1.04 1.69 2.17 2 3.11l-.1.03-2.17-2.83-.14.12c.9 1.14 2 2.44 1.84 2.74l-1.91-2.2c.1.67.73 1.23.53 1.4-.2-.2-.67-.8-.97-1.44-.14-.23 0 .36-.17.17a35.99 35.99 0 0 1-3.72-5.09c-.2-.33-.13-.38.25-.13l2.67 2.8c-1.7-1.86-2.89-3.33-2.61-3.58a30 30 0 0 0 2.94 3.11c-2.14-2.44-3.08-3.6-2.8-3.58.56.34 1.9 1.94 3 3.14-1.5-2.08-3.38-3.77-3.38-4.1 0-.1.1-.13.21-.13zm12.19.47a.1.1 0 0 1 .07.06l.5.62c.03.05.03.1 0 .14l-.14.1c-.03.02-.1.02-.14-.04l-.53-.64c-.03-.03-.03-.09.03-.13l.14-.1c.01-.01.04-.02.07-.01zm1.14.02c.23-.04.53.22.61.59.1.4-.06.74-.3.8-.26.03-.55-.2-.64-.6-.08-.4.06-.72.33-.8zm5.5.61c.08-.01-.03.37-.2.83l.18.09c.74-1.37.42-.26.36.35-.54.67-.9.8-1.07.33l-.17.87c-.14.4-.23.47-.3.16.04-.63.16-1.3.39-1.94.1-.3.24-.32.41-.17.22-.36.34-.51.4-.52zm-8.6.1c.13-.02.32.05.5.29a22.08 22.08 0 0 1 1.97 3.24c.28.67-.02.84-.3.23a21.42 21.42 0 0 0-2.28-3.5c-.09-.14-.02-.25.1-.27zm-24.87.18h1.41c.53 0 .47.53-.03.5h-1a4.29 4.29 0 0 0-2.38.64c-.41.17-.44-.15-.14-.4a3.08 3.08 0 0 1 2.14-.74zm25.78.1c.09-.04.24.02.37.22.53.9 1.03 1.67 1.41 2.53.17.4-.06.5-.24.14-.43-.97-.97-1.75-1.53-2.58-.12-.16-.1-.28 0-.32zm-31.36.1-.08.27-1.23-.03 1.3-.24zm8.63.06c.2 0 .33.08.4.27l-.4.24.48.08-.06.14-.7.16.3.23-.23.2.47-.06-.04.2-.5.2c.37.02.53.13.43.24l-.43.27.37.13-.47.2.4.27-.5.17c.33.1.46.28.5.38l-.55.23c.3.12.38.2.38.36l-.5.21.39.3-.4.13c.32.14.37.3.4.44l-.47.14c.36.13.55.24.47.38l-.56.27.53.06v.14l-.53.16c.4.17.53.3.53.44l-.5.29.53.1-.5.37c.3-.04.47.03.47.2l-.47.23c.36.07.77.13 1.14.22l.13.17.1-.17c.24-.09.46-.09.7 0l.24.34.16-.4.25.44.2-.53.26.73.2-.76.23.64.21-.71.17.57.17-.68.3.64.23-.8.3.66.2-.53.27.47.17-.56.21.4c.17.33-.21.64-.58.7l-4.97.8c-.3.04-.61-.19-.73-.86-.23-1.24-.14-2.44.03-3.64.3-2.7.74-4.05 1.17-4.91zm-5.7.09-.1.3c-2.9 1.78-4.1 5.18-4.14 9.82-.04 1.05-.14 2.1 0 3.24l.1-.24c.1-2.74.1-5.08.43-6.69a8.75 8.75 0 0 1 1.52-3.6c.2-.28.36-.6.56-.81.27-.28.58-.34.8-.58l-.03.23a9.1 9.1 0 0 0-2.47 4.35c-.47 2.11-.5 4.55-.33 7.09-.03.36-.1.66-.25.94l.14-.06c.2-.41.3-.87.3-1.44-.24-3.08 0-6.18 1.11-8.36.76-1.5 1.23-2.08 3.38-3.28l-.06.23c-1.8 1.24-3.5 2.67-3.85 7.55l.1-.1c.34-3.7 1.68-6.45 4.15-7.45.86-.37 1.9-.3 3.05-.3l-.21.16a5.36 5.36 0 0 0-4.55 1.8l.2.08c1.24-1.27 2.68-1.97 4.5-1.58l-.14.26c-1.26-.2-2.33.27-3.34 1.05v.14c1.14-.78 2.19-1.14 3.19-.94.33.03.44.3.33.7l-.2 1.83c-.04 1.77-.13 3.5-.57 5.08l-.17.14.17-3.07-.71 3.81c-.06.44-.37.36-.3-.04.16-.8.43-1.9.6-3.07-.17.03-.3.14-.33.36-.2 1.64-.47 2.98-.84 3.45.24-1.03.37-2.07.4-3.11l-.2.17-.5 2.9c.36.22-.1.5-.24.14l.16-1.6-.12-.03-.71 2.56.23-1.77-.6 1.77h-.22l.3-1.5-1 2.74c-.29.07-.33-.03-.1-.5l.64-1.88-.2.03c-.42 1.38-.72 2.35-1.2 2.64l-.17.03c.7-1.24.8-1.83.83-2.44-.36 1.17-.74 2-1.4 2.7-.1-.09.02-.4.41-1.14l.37-.97c-.17-.2-.26-.13-.37.17a5.01 5.01 0 0 1-.89 1.94l.43-1.64-.06-.21c-.3.97-.72 1.8-1.28 2.3l.27.14c.9-.6 2.14-.4 3.42-.97.26-.13.53-.2.7-.06l-.23.64-.25-.37c-.12.5-.33.96-.6 1.17l-.1-.74c-.52 1.18-.89 1.8-.93 1.24l.09-.7c-.4.4-.67.87-.78 1.44-.2-.03-.23-.43-.16-1l-.34 1.23c-.3.08-.36-.27-.2-1-.27.67-.5 1.14-.6 1.2-.14-.2-.17-.53-.06-.97l-.34.64c0 .47-.13.63-.33.6.1-.7.1-.97-.03-.8l-.4 1.08c-.24.13-.3-.14-.27-.73-.36.2-.27.92-.53 1.23-.21-.14-.23-.47-.21-.84-.17.56-.33.9-.56.94l-.08-1.1c-.1.5-.24.9-.44 1.24l-.3-.8-.14.77c-.24.14-.44-.08-.57-.58-.04 1.05-.14 1.9-.8 2.34.07.27-.25.97-.65 1.77l1.08-1.56c.23-.07.33.06.23.56l-1.1 1.8c-.16.24-.36.17-.55.04a6.4 6.4 0 0 1-1.05 2.14c.47-.3.77-.94 1.14-1.8.06-.27.36.07.27.6l-.27.24.03.4-.34.03v.53l-.3.13c.3.73-.06 1.2-.8.84-.23.9-1.23.44-.73-.37 1.23-2.01 2.42-4 2.67-6.72.06-.97.66-1.4 1.44-1.83 1.64-.9 2.21-2.44 2.17-4.17-.38-7.56 1.74-10.87 4.97-12.17zm7.1.1.08.22c-.7 2.55-.77 4.8-.3 6.85-.3-3.47-.03-5.47.58-6.53v.33c-.47 2.44-.5 4.41-.06 6l.13-.08a19.5 19.5 0 0 1 .26-6.48l.24.03a17.43 17.43 0 0 0-.13 6.42l.13-.14c-.25-2.64-.24-4.48.17-6.14l.2.03c-.37 2.55-.41 4.55-.08 6.17l.14-.03c-.26-2.77-.14-4.73.23-6.2l.13.13a23.96 23.96 0 0 0 0 6l.14-.08c-.08-2.41-.21-4.3.09-5.72l.17-.2a21.8 21.8 0 0 0 .06 5.95h.14c-.23-2.6-.17-4.58.1-6.18l.12.1c-.12 2.1-.12 4 .03 6.1l.14-.02c-.14-2.88-.03-4.86.26-6.02.27-.1.27.22.03.6a24.57 24.57 0 0 0 0 5.39l.21.03c-.21-2.78-.03-4.37.27-5.95.17-.16.34.03.14.44-.24 1.94-.37 3.31-.17 5.51h.23c.27.1.3.2.03.3-1.64.34-3.22.64-4.72.73-.3.03-.4-.14-.4-.56-.1-2.37.17-4.55.75-6.52l.1-.03a19.83 19.83 0 0 0-.31 6.69c-.14-3.2.26-6.57.86-7.15zm-3.42.2c.36-.01.67.06.67.14 0 .1-.3.14-.67.14-.36 0-.67-.03-.67-.14 0-.06.3-.14.67-.14zm11.36.1c.06-.03.1-.03.12 0l.02.27L37.42 42c.23-.23.47-.34.67-.54.86-.77 1.42-1.33 1.27-.9a3.13 3.13 0 0 1-1.3 1.4l-.84.9-.06.2c.9-.93 1.37-1.2 1.47-.96l-1.6 1.9 1.76-1.37a7.48 7.48 0 0 1-2.17 2.2v.17c.97-.8 1.7-1.3 1.77-1.06-.16.4-.76 1-1.5 1.67l.91-.44c.06.36-.14.63-.55.83-.5.12-.77.34-.77.53l.6-.24c.02.21-.31.53-.81.94l.7-.2c.03.17-.25.5-.91.96l.63-.12c.03.16-.09.32-.36.56l.9-.29c-.04.2-.14.36-.45.47l.06.17c.53-.3.57-.06.37.03.14.06.5-.06.2.44.36-.17.6-.03.54.22.7.1.67.8.03.73-.33.03-.67.06-1 .17-.4.17-.6.14-.7-.33-.24-.87-.54-1.37-.9-1.58-1.2-.5.23-1.1.36-1.64.06-.53.3-.8.63-.94-.39.03-.4-.27.03-.86-.2-.03-.3-.14.34-.9-.5.17-.6.03.12-.9-.64.35-.64.13.05-.7-.3-.1-.28-.34.1-.67-.54.03-.44-.2-.17-.4.97-.46 2.1-1.7 2.49-1.87zm14.67 0c.08-.04.21.06.3.22.1.2.1.38.04.41-.08.03-.22-.07-.3-.27-.1-.17-.1-.34-.04-.37zm1.35.03c.06-.03.17.1.3.39.35.88.55 1.99.52 3.32 0 .5-.4.53-.42.06-.14-1.17-.17-2.27-.41-3.24-.06-.32-.05-.5.01-.53zm2.84 0c.04 0 .1 0 .17.02l.16.45.14-.3c.23-.13.26 0 .15.4l-.06 1.44c-.14.21-.23.56-.36 0l.2-1.3-.23.45c-.2 0-.25-.2-.28-.6-.02-.36 0-.53.11-.56zm-38.57.1c.42.01.86.08 1.33.21-1.5 1.64-2.52 4.54-2.28 9.54.12 2.34.41 3.62-.96 5.01-1.25 1.3-2.15 1.12-2.33 2.63-.14.98-.35 2.1-.62 2.73-.96-.54-1.07-1.69-.32-3.46 1.95-3.61 1.53-6.78-.88-9.56 1.2-4.51 3.11-7.2 6.06-7.1zm37.46.14c.06-.03.2.09.29.27.08.17.1.33 0 .36-.06.06-.2-.07-.26-.24-.1-.17-.1-.36-.03-.4zm-20.95.03c.07.01.1.1.06.23-.25 1.47-.53 2.7-.57 4.64l-.13-.3c.17-1.74.17-2.74.4-4.4.07-.14.17-.2.24-.17zm-.56.03c.05 0 .08.06.06.13a28.57 28.57 0 0 0-.47 5.09h-.09A18.2 18.2 0 0 1 35.4 40c.06-.06.12-.09.17-.07zm1.03.13c.13-.02.18.07.15.28l-.42.82-.08-.03.2-1a.52.52 0 0 1 .15-.07zM66.6 42.2c.1-.03.31.1.52.44.2.3.23.9.17 1.61-.04.21-.26.27-.34 0a3.18 3.18 0 0 0-.44-.9c-.33-.42-.27-.65.17-.62-.2-.31-.19-.5-.08-.53zm-25.35.12c.07.01.17.11.22.23.24 0 .27.17.06.4.57.07.73.24.44.47l-.47.1.6.06c.26.1.2.3.03.34l-.57.09.71.09c.33 0 .34.09-.07.3l-.3.2.5.06c.23-.03.3.06.19.33.17.8 0 1.3-.67 1.3l-2.24.51c-.14-.09-.2-.09-.14-.14 0-.03-.05-.06-.05-.06 0-.06.08-.13.14-.13.03 0 .1.03.1.09.14-.03.23-.03.34-.06v-.67l-.3.06v.1c0 .13-.06.23-.14.23-.06 0-.14-.1-.14-.22v-.05l-.13.05c-.3-.11-.3-.25-.03-.41l1.68-.3c.28-.11.36-.28.29-.5l-.14-2.2c-.04-.22.01-.29.09-.27zm15.63.69c.06 0 .1.06.1.13 0 .08-.04.14-.1.14-.06 0-.1-.06-.1-.14 0-.07.04-.13.1-.13zm-16.28.71c.1-.06.24.13.24.29l-.09.53c-.1.1-.13.05-.24-.17l.03-.5c0-.08.03-.13.06-.15zm2.17.7c.05-.02.14 0 .21.07.3.3.34.55.3.8-.02.33-.3.57-.3.33-.03-.3 0-.64-.22-1.03-.07-.09-.05-.15 0-.17zm-2.12.32c.1 0 .16.06.16.16 0 .11-.06.17-.16.17-.06 0-.12-.07-.12-.17-.02-.09.04-.16.12-.16zm1.24.25h-.04c-.14.03-.23.14-.2.17.03.12.14.15.27.12.14-.03.23-.1.2-.21-.03-.07-.11-.09-.23-.08zm25.12.08c.03 0 .07.05.13.14.27.33.5.66.56 1.23.09.24.06.38-.13.4-.2.04-.36-.06-.53-.22-.22-.28-.3-.44-.27-.64l.17-.77c.01-.1.04-.14.07-.14zm-25.04.37c-.03 0-.05.03-.05.07 0 .08.03.1.06.1s.06-.04.06-.1c0-.03-.03-.07-.06-.07zm1.51 0c.11 0 .17.13.2.3.03.17.03.33-.06.33-.03.03-.14-.1-.17-.27a.62.62 0 0 1 .03-.36zm-2.09.15v.5s.06 0 .1-.03c.22-.28.22-.41-.04-.47h-.06zm-.21.03-.14.03.03.57c.05-.04.08-.04.1-.07v-.53zm-.34.06-.3.06.14.6c.06 0 .1-.03.16-.03v-.63zm-.47.1-.16.06.1.61h.06v-.67zm2.77.38c.07.03.1.14.09.32-.1 1.03-.25 1.9-.53 2.17v-1.8l-.14.03c-.1.9-.24 1.56-.47 1.83l.06-1.67h-.17l-.36 1.64.09-1.44c0-.2-.08-.23-.17-.14-.24 1.67-.53 2.39-.86 2.61.33-1.07.33-1.8.27-2.44l-.1-.06c-.1.88-.23 1.7-.54 2.34-.33-.5.3-1.37.17-2.2h-.06l-.6 2.06c-.2 0-.14-.26.05-.8l.06-1.17-.09.06c-.16.64-.33 1.1-.57 1.52l.1-1.54-.44 1.11.03-.91-.47.21c.2-.38.5-.64.93-.8 1.15-.17 2.29-.41 3.37-.8.16-.13.28-.17.35-.13zm23.2.22c.05 0 .1.01.16.06l.56.36c.1.08.1.14.04.21-.16.17-.1.26.17.53.18.14.14.35 0 .35-.17 0-.3-.16-.47-.24l.26.36c.14.2-.14.3-.37.1l-.72-.57c-.2-.3-.14-.63.22-1.06.05-.05.1-.09.15-.1zm-22.68.01c.09.02.14.14.05.32l-.2.47h-.09l.03-.56c.02-.18.13-.25.21-.23zm251.32.73a7.21 7.21 0 0 0-6.13 3.41 6.85 6.85 0 0 0-.9 3.5c0 2.04.65 3.7 1.96 5.01a6.83 6.83 0 0 0 5.04 1.96c1.12 0 2.1-.18 2.97-.55a9.14 9.14 0 0 0 2.76-1.97l-1.7-1.77a7.3 7.3 0 0 1-1.99 1.48c-.6.28-1.27.41-2 .41-.86 0-1.64-.18-2.34-.57-.7-.4-1.24-.93-1.62-1.61a4.72 4.72 0 0 1-.57-2.34c0-1.26.42-2.32 1.28-3.18a4.33 4.33 0 0 1 3.2-1.3c1.5 0 2.83.64 4.03 1.9l1.76-1.67a8.78 8.78 0 0 0-2.61-2.03 7.5 7.5 0 0 0-3.14-.68zm51.4 0a7.22 7.22 0 0 0-6.12 3.41 6.84 6.84 0 0 0-.9 3.5c0 2.04.66 3.7 1.96 5.01a6.83 6.83 0 0 0 5.04 1.96c1.12 0 2.1-.18 2.97-.55a9.14 9.14 0 0 0 2.76-1.97l-1.7-1.77a7.3 7.3 0 0 1-1.98 1.48c-.61.28-1.28.41-2 .41-.87 0-1.65-.18-2.34-.57-.7-.4-1.25-.93-1.63-1.61a4.72 4.72 0 0 1-.57-2.34c0-1.26.42-2.32 1.29-3.18a4.32 4.32 0 0 1 3.18-1.3c1.5 0 2.84.64 4.04 1.9l1.76-1.67a8.6 8.6 0 0 0-2.61-2.03 7.5 7.5 0 0 0-3.14-.68zm-129.7.08c-1.24 0-2.38.3-3.46.93a6.8 6.8 0 0 0-3.42 6c0 1.9.66 3.52 1.97 4.88a6.52 6.52 0 0 0 4.93 2.05c1.9 0 3.5-.67 4.82-2a6.68 6.68 0 0 0 1.99-4.89 6.8 6.8 0 0 0-2.02-4.94 6.53 6.53 0 0 0-4.8-2.03zm114.14 0c-1.24 0-2.4.3-3.45.93a6.8 6.8 0 0 0-3.43 6c0 1.9.66 3.52 1.97 4.88a6.52 6.52 0 0 0 4.93 2.05c1.9 0 3.5-.67 4.82-2a6.68 6.68 0 0 0 2-4.89 6.8 6.8 0 0 0-2.03-4.94 6.53 6.53 0 0 0-4.8-2.03zm-287.3.28c.05 0 .09.03.09.14 0 .06-.04.14-.1.14-.06 0-.13-.06-.13-.14.01-.1.07-.14.13-.14zm-34.36.02c.1.01.13.23.12.48-.58.84-1 1.28-1.37 1.5.15-.63.58-1 1.02-1.77.1-.16.18-.22.23-.21zm189.91.01v13.2h2.53v-5.85l4.07 5.85h2.97l-5.05-7.31 4.61-5.89h-3.02l-3.58 4.55v-4.55h-2.53zm28.08 0-2.29 13.2h2.44l1.46-8.33 2.77 8.33h2.22l2.8-8.33 1.42 8.33h2.42l-2.21-13.2h-2.44l-3.08 9.21-3.07-9.2h-2.44zm15.26 0v13.2h2.55V49.87h4.4V60.7h2.53v-13.2h-9.48zm16.1 0-5.1 13.2h2.67l3.72-9.7 3.65 9.7h2.69l-5.08-13.2h-2.55zm9.14 0v13.2h7.21v-2.47h-4.7v-3.48h4.7v-2.4h-4.7v-2.39h4.7v-2.46h-7.2zm9.58 0v13.2h2.53v-5.85l4.07 5.85h2.97l-5.05-7.31 4.61-5.89h-3.02l-3.58 4.55v-4.55h-2.53zm32.11 0-2.29 13.2h2.44l1.46-8.33 2.78 8.33h2.21l2.8-8.33 1.42 8.33h2.43l-2.22-13.2h-2.44l-3.08 9.21-3.06-9.2h-2.45zm45.01 0v13.2h2.54v-5.85l4.06 5.85h2.97l-5.05-7.31 4.61-5.89h-3.01l-3.58 4.55v-4.55h-2.54zm11.38 0v13.2h3.7c1.06 0 1.9-.15 2.5-.45a3.82 3.82 0 0 0 2.06-3.4c0-.78-.19-1.44-.55-2a4.12 4.12 0 0 0-1.76-1.41 3.6 3.6 0 0 0 1.03-1.16c.2-.4.32-.86.32-1.36 0-.78-.23-1.45-.7-2.02a3.45 3.45 0 0 0-1.88-1.17c-.56-.15-1.44-.23-2.64-.23h-2.08zm10.65 0v13.2h3.7c1 0 1.8-.14 2.37-.4a3.89 3.89 0 0 0 2.17-3.63 4.04 4.04 0 0 0-2.57-3.83 8.01 8.01 0 0 0-2.6-.36h-.55V47.5h-2.52zm10.06 0v13.2h2.48v-13.2h-2.48zm-343.1.47c.05 0 .08.11.08.23 0 .14-.03.23-.07.23-.03 0-.06-.1-.06-.23 0-.12.03-.23.06-.23zm-9.49.22c.24-.03.27.1.24.4-.07.45-.13.84-.33 1.17-.17.14-.21-.44-.17-1.3-.31.8-.2 1.65-.72 1.77-.23-.36.13-1.06.2-1.6-.5.47-.33 1.03-.77 1.63-.16.03-.13-.53-.03-1.44-.24.67-.44 1.2-.66 1.44-.14-.2-.14-.7-.11-1.23-.21.87-.44 1.48-.64 1.58-.07-.5-.03-.98.03-1.44l-.09-.09c-.14.84-.27 1.34-.47 1.56-.18-.47-.21-1 .06-1.53h-.2c-.13.44-.2.8-.4.94-.28-.03-.4-.33-.4-.83-.24.92-.56 1.44-.94 1.74-.03-.57.03-1.15.23-1.71.06-.23.3-.37.7-.4l4.47-.66zm1.25.34c.04 0 .07.02.1.05l.53.53c.3.27.1.5-.17.36l-.66-.39c-.32-.21-.04-.6.2-.55zm-.41.6c.03 0 .07.01.1.04l1 .75c.3.22 0 .63-.23.46l-1.07-.66c-.32-.21-.05-.65.2-.6zm181.96.51a4.2 4.2 0 0 1 3.11 1.3 4.42 4.42 0 0 1 1.26 3.2c0 1.25-.42 2.31-1.26 3.18a4.1 4.1 0 0 1-3.05 1.29 4.3 4.3 0 0 1-2.8-1 4.18 4.18 0 0 1-1.58-3.46c0-1.3.4-2.38 1.24-3.23a4.15 4.15 0 0 1 3.08-1.28zm114.14 0c1.22 0 2.23.43 3.11 1.3a4.42 4.42 0 0 1 1.26 3.2c0 1.25-.42 2.31-1.26 3.18a4.1 4.1 0 0 1-3.05 1.29 4.3 4.3 0 0 1-2.8-1 4.18 4.18 0 0 1-1.58-3.46c0-1.3.4-2.38 1.24-3.23a4.16 4.16 0 0 1 3.08-1.28zm-266.35.06c.07.02.19.12.27.25.13.2.16.39.09.43-.08.03-.23-.07-.33-.27-.13-.2-.16-.36-.1-.4.02 0 .04-.01.07 0zm303.8.2h.64c.58 0 1 .12 1.3.36.28.25.42.58.42.99 0 .44-.14.79-.44 1.05-.3.25-.76.38-1.37.38h-.54V49.9zm-329.64.55c.24 0 .44.13.64.4l.57.63c.25.3.03.53-.2.47-.8-.25-1.57-.53-2.3-.9-.18-.21-.14-.36.1-.5l1.19-.1zm-10.56 0c.07 0 .14.02.14.1l-.08.61c0 .1-.29.17-.29.03l.06-.6c.03-.07.1-.12.17-.14zm18.88.2c.35-.03.63.1.8.4l2.21 2.92-.63.22 1.66 1.28c-.3.24-.09.4.28.53-.2.26-.08.56.24.53.14.4.44 1-.44.17-.53-.28-.6 0-.17.83l.91 1.3c.06.61.3 1.11.78 1.54l.72 1.51c0 .23.14.46.2.67.1.58.23.87.7.94a5.09 5.09 0 0 1-2.08 2.28c-1.97 1.06-3.53.64-3.37-1.97.1-1.41.37-2.58.4-4.02.56-2.23.03-3.39-1.91-3.5-1 .02-1.78.02-2.34.43-.53.36-1.3.23-2.34-.36-2-1.5-3.5-2.3-4.52-2.3.97 1.1 1.25 2.2.47 3.31.8.37.78.73-.03 1.11a21.8 21.8 0 0 1-6.38-.97c-.73-.14-.87 0-.37.4 1.67.66 2.58 1.66 2.58 3.07-1.08.03-1.97.1-2.47.2-.47.3-.97.28-1.44-.3-1.2-1.23-1.34-2.34.03-3.28.76-.54 1.9-1.77 3.3-3.64.95-.06 1.78-.27 2.7-.4 3.75-.46 7.29-1.27 10.14-2.83.13-.04.26-.07.37-.07zm-10.04.37c.04 0 .1.01.17.05 1.02.59 1.88.85 2.76 1.07.47.1.3.34-.06.34-.5 0-1.03-.03-1.53-.3-.5-.25-.97-.54-1.4-.91-.12-.1-.08-.24.06-.25zm-9.3.17c.07 0 .13.06.13.17 0 .09-.08.16-.14.16-.03 0-.1-.07-.1-.16 0-.1.07-.17.1-.17zm-.43.03c.07-.02.15.01.16.15l.06.47c.05.14-.3.28-.3.03l-.06-.47a.2.2 0 0 1 .14-.18zm-2.72.32h.2v.01l-.12.43-.14-.08.06-.36zm2.21.24c.1 0 .17.1.17.2 0 .13-.06.2-.17.2-.09 0-.16-.08-.16-.2 0-.1.07-.2.16-.2zm-.44.09c.05-.01.1.03.11.15v.44c0 .14-.27.23-.23 0l.03-.44c0-.09.05-.15.1-.16zm-18.04.27c.08 0 .18.07.2.2.07.5-.16.55-.16.94a1.61 1.61 0 0 1-.23-.83c.02-.2.1-.3.19-.3zm17.51.08c.07 0 .14.05.14.15l.03.41c0 .14-.3.17-.3-.03v-.4c0-.1.07-.13.13-.13zm-11.13.12c.21 0 .4.1.47.25-.1.1-.5.03-.9-.14l.43-.1zm50.3.08c.1 0 .2.3.2.64 0 .33-.1.63-.2.63-.13 0-.2-.3-.2-.63 0-.34.07-.64.2-.64zm-50.33.44c.1 0 .2.02.29.07-.1.16-.53.26-1.02.32l.43-.32c.1-.05.2-.07.3-.07zm37.62.08a.1.1 0 0 1 .08.02c.06.07-.03.25-.2.44-.17.17-.36.3-.44.23-.06-.07.03-.29.2-.47.12-.12.26-.22.36-.22zm.34.37c.4.44-.26.72-.4 1.05-.1.06-.14.3-.14.86-.2-.44-.22-.8-.13-1.13.24-.6.47-.78.67-.78zm-38.13.55c.07 0 .13.03.17.06-.03.1-.34.14-.64.14l.27-.19a.41.41 0 0 1 .2-.01zm50.35.07c.07 0 .12.05.17.16l.82.74c-.17.17-.53.17-.8.23l.27.44-.28.13-.1.37c-.5-.4-.8-.78-.64-1.17l.34-.71c.08-.12.15-.18.22-.19zm-33.76.14c.03 0 .07 0 .1.03l.53.47c.14.14-.09.37-.2.28l-.5-.52c-.1-.1-.03-.24.07-.26zm-.57.14c.04 0 .08.01.12.04l.64.53c.17.19-.1.41-.24.3l-.6-.55c-.12-.13-.04-.3.08-.32zm22.58.01c.18-.04.32.14.57.25l-.4.2.43.13-.4.21.74.37-.48.13.6.37-.53.13c.53.17.88.3.83.47l-.56.14c.24.1.7.14.73.33.03.17-.37.08-.53.1l.5.33h-.47l.33.17c-.03.3-.17.47-.36.5-.54-.06-.1-.4-.47-.87-1-1.4-.93-2.52-.73-2.82a.44.44 0 0 1 .2-.14zM14 54.37c.26-.03.53 0 .67.17-.14.16-.64.2-1.25.09l.58-.26zm15.93.15c.04-.01.1 0 .13.05l.75.64c.2.16-.11.47-.28.33l-.7-.67a.2.2 0 0 1 .1-.35zm-2.13.05c.22.05.1.52-.36 1.4l-1.14 1.31c-.6.67-.73 1.38.1 2.04 1.13.57 1.6 1.1 1.43 1.57a3.3 3.3 0 0 0-3.33.75c-.72-.22-1.54-.11-2.72.45a2.52 2.52 0 0 0-2.06-.13c-.2-.5-.78-.64-1.75-.46-.26-.3-.7-.5-1.26-.64.53-2 1.78-3.05 3.81-3.36 1.97-.34 4.14-1.45 6.52-2.55.38-.28.63-.4.76-.38zm351.09.16h.51c1.8 0 2.72.64 2.72 1.89 0 .62-.18 1.06-.53 1.32-.35.25-1.05.37-2.08.37h-.62v-3.58zm-10.65.19h.53c.99 0 1.7.16 2.12.5.43.33.64.79.64 1.35 0 .5-.18.9-.55 1.15-.36.26-1.06.4-2.1.4h-.64v-3.4zm-338.85.17c.05 0 .1 0 .14.02l.6.61c.18.17-.23.42-.32.29l-.61-.6c-.1-.13.04-.3.2-.32zm10.69 0c.83.2 1.7.9 2.56 1.65.14.22.06.28-.14.2-.59-.2-1.47-1.2-2.42-1.84zm11.51.2c.1 0 .2.1.2.23 0 .11-.1.22-.2.22-.14 0-.23-.1-.23-.22s.1-.23.23-.23zm-22.46.38c.04 0 .07 0 .1.04l.4.39c.08.1-.17.27-.25.17l-.35-.37c-.1-.1 0-.22.1-.23zm22.83.28c.03 0 .06.01.08.03.13.03.17.2.07.36-.08.15-.22.27-.3.2-.14-.03-.17-.2-.07-.36.05-.13.13-.22.22-.23zm-23.02.07c.02 0 .05 0 .06.02l.34.33c.1.1-.11.24-.17.17l-.34-.33c-.04-.08.04-.18.11-.2zm-.3.23c.03 0 .05 0 .07.02l.4.36c.09.1-.14.27-.24.2l-.32-.35c-.1-.1 0-.2.09-.23zm-15.99.16c.09-.02.17 0 .24.02-.04.17-.4.34-.83.44l.33-.38a.76.76 0 0 1 .26-.08zm42.69.22c.27 0 .36.1.3.27l-.17.13c.3.1.5.2.6.36-.17 0-.26.05-.3.17.58-.1.54.8.04.62-.34-.1-.5.03-.34.6.14.67.6.84.58.14-.08-.33 1.06-.4 1.2.34l-.44-.17c.09.53.53.3.6.76l-.36.03c.44.3.76.66.93 1.1-.47-.06-.5-.57-.93-.57.56.76 1.25.6 1.58 1.36-.47-.03-1.03-.4-1.68-1 .57.82.94 1.47.8 1.8-.83-.36-1-1.6-1.34-1.96 0 .63.47 1.01.3 1.7-.33-.39-.5-1.02-.5-2.02.34.06.48-.17.48-.73-.06-.6-.37-.56-.3 0 0 .44-.3.57-1.2.04-.14.14.06.3.56.6l-.03.5.25-.44.1 1.4c-.04.36-.14.3-.23-.07l-.1-.71c0 .5-.07.74-.24.71l-.13-1.3-.38.47-.1-.75-.33.26v-.9c-.22.13-.5.04-.77-.37.36.1.6.04.9-.14-.16-.62.15-.96.7-1.02.07-.1.07-.25-.08-.3-.17-.03-.28-.03-.37-.2-.13-.4.06-.6.4-.7zm-3 .02.14.01c.19.08.22.24.08.44-.1.17-.33.27-.5.24-.17-.07-.2-.27-.1-.44a.57.57 0 0 1 .37-.25zm-4.81.5c.57.22.93.63 1.13 1.24.03.33 0 .5-.22.23a3.75 3.75 0 0 0-.91-1.47zm-4.59.03c.03-.03.17 0 .35.1.17.1.23.22.2.25-.03.06-.17.03-.33-.08-.16-.1-.25-.24-.22-.27zm-30.2.12c.05 0 .1.02.15.04-.06.2-.53.43-1.14.56l.44-.45a.78.78 0 0 1 .54-.15zm40.06.03c.08.01.15.05.2.1.1.16.03.28-.13.34-.14.07-.34.03-.45-.1-.07-.1-.03-.23.14-.31a.4.4 0 0 1 .24-.03zm-5.53.32c.62.2 1.09.97 1.09 1.64 0 .36-.17.6-.26.25-.13-.45-.38-1.42-.83-1.9zm-3.16.18c.52-.06.87.3.97 1.15l.1 1.06c.4.56.57 1.28.16 2.25.17.7.58 1.3 1.17 1.8.57.6.64 1.3 0 2.31-.56 1.47-1.37 2.37-2.06 3.34 0 .03-.08.06-.08.09-.03.03-.06.06-.1.13.04-.06.07-.09.1-.16l-.1-.5c.1.13.14.23.18.36l.3-.5-.1-.53c.07.14.14.23.2.36l.25-.4c-.08-.17-.11-.37-.17-.57.1.14.17.28.24.4.11-.17.2-.34.28-.5l-.14-.5c.06.09.14.2.2.33.1-.3.16-.53.2-.73l-3.45 2.14c.29-.26.6-.48.9-.74l-.1-.63c.1.17.17.37.25.54.06-.08.16-.14.23-.21l-.11-.8c.13.22.2.46.26.66.1-.06.2-.17.3-.23-.03-.33-.08-.7-.14-1.08.17.3.28.6.34.91.1-.1.16-.16.27-.24-.03-.47-.1-1-.17-1.5.23.45.4.9.4 1.27.06-.07.13-.1.2-.16a16 16 0 0 0-.2-1.64c.27.5.44 1 .47 1.4 0-.02.06-.07.1-.1 0-.53-.1-1.26-.2-1.94.34.64.5 1.25.43 1.67l.2-.2c-.03-.97-.37-1.83-.67-2.74-.14.47-.14.63-.27.59.07-.53.03-.78-.06-.84-.06.75-.23 1.22-.47 1.45l.13-1.2h-.2c-.16.86-.2 1.13-.52 1.42.13-.53.06-.92.06-1.03-.1.03-.17.08-.23.08v.1c.03.34.03.76-.36 1.3-.03-.46.16-.89.16-1.36-.1.03-.17.08-.27.1v.46c-.03.18-.21.64-.26.72.05-.13.15-.97.06-1.16-.07.03-.16.03-.23.06v.11c-.04.14-.04.23-.1.23-.03 0-.06-.06-.06-.17-.03-.03-.03-.09-.06-.12-.03 0-.1 0-.17.03v.03c.03.1.03.17 0 .2-.03 0-.1-.1-.17-.2-.06 0-.13.03-.16.03.03.17.03.24-.11.3-.17.08-.17-.1-.2-.27-.1.03-.21.03-.3.06.04.14 0 .23-.03.23-.03.03-.1-.08-.17-.2h-.27c.03.12.03.2 0 .23-.03 0-.1-.08-.17-.21-.03-.03-.03-.1-.06-.17-.1-.2-.13-.4-.1-.44.06-.03.16.1.27.35.03.06.06.17.06.23a.66.66 0 0 1 .24-.08c0-.07 0-.1-.03-.14-.06-.27-.06-.5 0-.53.06-.03.17.17.23.44 0 .03.03.1.03.17l.27-.1a1.63 1.63 0 0 1-.03-.34c0-.14 0-.2.03-.2.03-.03.2.2.28.47l.16-.07c-.03-.03-.03-.03-.03-.08-.06-.2-.06-.27-.06-.4-.04-.08-.04-.13 0-.16.03-.03.2.23.27.46 0 .03 0 .07.03.09l.17-.06V63.26c0-.14.03-.21.06-.21s.06.07.1.16l.11.48c.06 0 .14-.04.2-.08v-.26c.03-.1.03-.17.06-.17.03-.03.1.17.12.34l.28-.1v-.37c0-.1.03-.2.07-.2.03-.03.06.03.06.14.03.09.08.2.08.33.06-.03.14-.03.2-.1 0-.2.04-.4.04-.54.03-.13.06-.22.1-.22.04-.04.05.03.05.16.03.14.03.3.03.5.06-.03.14-.07.2-.07.23-.94.53-2.2.53-3.34-.06-.14-.14-.24-.2-.36-.06 1.27-.16 2.33-.56 3.04a8.04 8.04 0 0 0-.03-3.4h-.1c.03 1.37.03 2.51-.34 3.28.14-1.1.1-2.26-.33-3.58-.08-.03-.14-.06-.2-.06.3.28.23 1.34.1 1.5-.22-.63-.04-.83-.61-1.27h-.17c.3.34.33.84.26 1.23-.17-.36-.44-.8-.7-1.06h-.3c.44.5.44.59.36 1-.17-.44-.83-.73-1.1-.94-.14 0-.17.03-.31.03.33.17.8.77.64.97-.23-.27-.75-.53-.94-.9-.14 0-.08.07-.22.07.06.2 0 .33.03.56-.3-.06-.47-.1-.83-.5-.06 0-.2-.03-.2 0 .03.09.17.33.2.42-.06-.1-.76-.45-.84-.56-.03-.03.14-.03-.27-.06.05.09.28.63.3.73-.05-.1-.56-.64-.63-.7-.17-.03-.3-.03-.47-.08l-.3-.5c1.5.1 3.17.03 5.17-.33l1.86-.37c.08-.02.16-.04.23-.04zm-31.42.06c.13 0 .25.02.35.09-.06.17-.63.36-1.24.47l.5-.44a.92.92 0 0 1 .39-.12zm.07.52c.12 0 .24.02.34.07-.09.2-.6.37-1.16.44l.45-.4a.8.8 0 0 1 .37-.11zm22.08.1.91.1.2.34-.03-.03c-.1-.01.3 1.06-.23-.07-.07-.13-.27-.1-.44-.17-.16-.06-.1-.1-.4-.17zm12.15.06c.58.41.8.47 1.06 1.41.07.37-.02.56-.22.26-.34-.47-.44-1.17-.84-1.67zm-10.8.08c.06 0 .17 0 .27.03l.26.44c-.1 0-.2-.03-.3-.08l-.23-.4zm-23.46.34a.41.41 0 0 1 .24.02c-.03.14-.41.3-.8.41l.3-.33a.87.87 0 0 1 .26-.1zm34.19.89c.44.22.64.27.86.9.08.23.05.4-.12.2-.27-.3-.4-.8-.74-1.1zm-33.73.21h.57c-.43.29-.9.5-1.07.42.03-.2.23-.36.5-.42zm.9.32c-.52.48-1.06.8-1.29.74.03-.23.26-.5.56-.64l.73-.1zm28.8.07c.11 0 .28.5.2.98-.09.5-.24.89-.33.86-.09-.03-.01-.43.05-.9.06-.5.03-.97.09-.94zm-.61.37c.09 0 .09.33.03.74-.06.4-.17.7-.28.7-.06 0-.09-.34-.03-.75.08-.39.2-.7.28-.7zm-.8.03c.08.03.13.33.08.77-.06.37-.13.7-.22.7-.06 0-.1-.33-.07-.73.03-.4.11-.74.2-.74zm5.62.13c.03 0 .1.04.15.11.3.4.24.5.2.8-.06-.25-.33-.53-.4-.8-.01-.08 0-.12.05-.11zm-7.36 0c.06 0 .17.3.17.67-.02.37-.08.67-.17.67-.07 0-.16-.3-.16-.67 0-.36.06-.66.16-.66zm1.13.03c.06 0 .13.3.13.67 0 .37-.06.67-.13.67-.07.02-.14-.29-.14-.67 0-.36.06-.67.14-.67zm-13.77.03c.72.03 1.32.22 1.07.55h-.1l-.16.4-.37.66.25-.74.09-.36c-.1-.03-.27-.1-.44-.14l-.3.3-.5.56.4-.66.17-.28c-.07 0-.14-.03-.2-.03l-.3.3-.5.57.4-.62.16-.28h-.26l-.2.3-.48.6.33-.7.11-.17-.38.1-.23.57.1-.53c-.3.14-.58.29-.67.64 0-.58.44-.91 1.27-1 .24-.03.5-.05.74-.04zm2.6.09c.18.01.37.06.56.14.6.23 1.34.34 2.3.14a4 4 0 0 1 1.48-.03c.48.24.44.49-.12.58-1.08 1-1.87 2.03-2 3.05-.37-.5.4-1.78 1.6-3.36-.74.58-1.4 1.3-2.03 2.14.14-.53.58-1.26 1.17-2.06-1.3.97-2.2 2.41-2.07 5.08-.5-1.6-.16-3.15.87-4.66l-1.44 1.5 1.3-2-.8.28.07-.3-.5.23v-.33l-.66.53.13-.56c-.24-.14-.4.08-.6.33-.15-.5.22-.75.74-.7zm9.33.02c.09-.03.2.2.3.5.06.3.06.58 0 .58-.07.03-.21-.21-.27-.5-.06-.3-.1-.58-.03-.58zm-1.7.03c.03 0 .17.17.26.44.07.25.1.47.04.47-.06.03-.16-.13-.27-.4-.06-.28-.1-.48-.03-.5zm.6 0c.1-.03.2.21.28.47.06.3.01.53-.05.58-.06 0-.2-.24-.22-.5-.08-.3-.08-.55 0-.55zm2.37 0c.06 0 .13.28.13.58 0 .33-.07.56-.13.56-.09 0-.13-.23-.13-.56 0-.29.03-.58.13-.58zm-26.62.07c.06 0 .12.02.15.04-.03.1-.33.17-.67.14l.3-.17a.66.66 0 0 1 .22-.01zm24.91.02c.06-.03.27.3.3.58.08.27.11.4-.1.44-.23.03-.17-.1-.23-.41-.03-.26-.03-.6.03-.6zm-1.84.1c.08 0 .22.22.25.45.03.2.06.3-.1.3-.15.03-.1-.07-.15-.3-.03-.2-.03-.44 0-.44zm-.6.12c.03-.03.13.1.16.27.07.17.11.3.06.33-.04 0-.12-.1-.2-.27-.07-.2-.1-.33-.02-.33zm-.49.04c.06.03.17.2.2.37.03.16 0 .25-.08.22-.07-.03-.16-.16-.2-.33-.02-.17 0-.26.08-.26zm-18.2.2c-.02.23-.49.7-1.08 1.06l.33-.7a.96.96 0 0 1 .75-.36zm6.23 0c.24 0 .39.1.34.33 0 0-.06.1-.22.14l.03.57-.24-.5h-.12c0 .28 0 .53.03.8l-.33-.73c-.06.03-.1.02-.17.02.03.37.03.76.03 1.17l-.47-.97v-.07c-.08.2-.1.44-.17.62l-.09-.67c-.1.27-.23.6-.33.94l-.03-.7v-.19H22l.83-.53c.29-.14.61-.23.85-.23zm-5.2.15c.3 0 .56.1.7.27h-.05v-.03c-.03.2-.44.56-.94.84l.3-.56c.08-.06.14-.14.25-.2h-.2c-.14.17-.41.38-.7.57l.23-.47c.04-.06.1-.1.13-.13-.09-.03-.2-.03-.33-.06l.6-.23zm2.52.29c.28.01.65.14.57.32-.03.2-.47.57-.94.9l.28-.6c.06-.1.13-.14.2-.2h-.24c-.13.17-.36.37-.66.58l.2-.5.13-.1-.17-.02c-.09.13-.3.25-.5.4l.13-.34c.24-.3.4-.27.77-.41a.5.5 0 0 1 .23-.03zm12.1 1.1c.06.1 0 .23-.09.35-.1.17-.24.28-.27.23-.03-.03 0-.21.09-.33.1-.17.24-.25.27-.25zm-12.01.57c.21.26-.08.79.06 1.47l-.53-.47.16.9-.4-.43-.1.8c-.13-.33-.3-.64 0-1.41.28-.7.6-.9.8-.86zm18.87.22c.08 0 .17.17.24.37.05.2.05.3-.04.33-.14.06-.1-.06-.17-.27-.06-.17-.06-.4-.03-.43zm-7.24.03c.05.05.05.2-.01.37-.1.2-.2.33-.27.3-.08 0-.03-.2.03-.36.09-.2.2-.34.25-.3zm6.77.14c.03-.03.1.1.17.24.07.17.07.34.07.34-.04.01-.13-.1-.16-.24-.08-.17-.11-.34-.08-.34zm2.87.44c.06 0 .09.14.09.44s0 .58-.23.53c-.23-.03-.15-.3-.1-.6.11-.28.15-.37.24-.37zm-.47.06c.03 0 .03.06.06.17h-.16c.03-.1.07-.17.1-.17zm-.38.41c.06.03.1.1.1.34-.01.2-.01.39-.18.39-.2-.03-.17-.23-.09-.43.06-.24.1-.3.17-.3zm.26.06h.2c0 .37 0 .64-.14.6-.14-.02-.14-.3-.06-.6zm-.84.3h.21c-.01.19-.01.37-.15.37-.13-.03-.1-.2-.06-.36zm-11.4.11c.1.46.23.88.48 1.06.06.23-.06.37-.17.28a1.64 1.64 0 0 1-.3-1.34zm1.68.2c.06 0 .13.16.13.4 0 .22-.07.43-.13.43-.08 0-.14-.21-.14-.44s.06-.4.14-.4zm-16.7.4c.23 0 .3.2.42.58.36.34.6.61.6.89.76.63.64.89-.4.8-.34-.1-.53-.33-.53-.8l-.35-1.42a.7.7 0 0 1 .27-.05zm8.78.43c.53.23.53.73-.14 1.04-.5-.2-.47-.64.14-1.04zm1.51.12c.05 0 .16.08.22.22.09.13.13.27.09.28-.03 0-.14-.06-.23-.2-.08-.13-.14-.26-.08-.3zm26.61.34c.08.03.05.24-.06.5-.09.23-.23.4-.3.36-.06-.03-.03-.22.07-.47.11-.25.23-.44.3-.4zm-26.73.21c.06-.03.2.08.34.27.13.19.16.35.13.4-.07.03-.2-.06-.33-.28-.14-.2-.2-.36-.14-.39zm-4.82.2c.1-.02.23-.02.38 0 .27.07.47.16.47.23-.03.09-.27.13-.53.06-.28-.03-.5-.13-.47-.22 0-.03.06-.06.16-.07zm32.72.06c.08.03.03.3-.09.6-.17.28-.33.5-.44.48-.1-.03-.06-.3.1-.61.13-.3.33-.5.43-.47zm.5.2c.05 0 0 .2-.06.4-.07.2-.21.34-.27.3-.03 0 0-.19.06-.4.1-.2.21-.34.27-.3zm-4.88.02c.12.01.21.22.36.55.08.17 0 .28.1.37.07.13.27.2.33.3.24.36.2.67.16.7-.06.03-.03-.03-.16-.3-.03.02-.08.07-.08.1-.12.14-.27.24-.29.17-.07-.03-.03-.2.06-.34.08-.06.11-.1.14-.13-.03-.03-.03-.06-.06-.1-.03.04-.03.07-.08.1-.13.16-.3.27-.36.2-.08-.04-.03-.23.09-.4.03-.06.1-.1.14-.14-.03-.03-.03-.07-.06-.07-.14.17-.3.24-.37.2-.07-.07-.03-.23.1-.4 0-.04.02-.06.07-.06-.08-.06-.08-.1-.1-.14-.1.08-.17.1-.24.08-.03-.03 0-.17.11-.3-.06-.14-.1-.28 0-.34.05-.04.1-.06.14-.05zm-23.71.08c.03 0 .12.1.22.26.08.18.11.35.03.35-.03.03-.13-.1-.22-.24-.06-.17-.1-.34-.03-.37zm-4.46.16h.32c.22.04.39.14.39.2 0 .08-.2.11-.44.08-.23-.07-.4-.14-.4-.21 0-.03.05-.05.13-.07zm22.5.18c.1.16.18.34.2.5l-.1.09-.1-.6zm-18.42.06c.06-.05.24.16.3.44.1.27.1.5 0 .53-.06 0-.2-.2-.27-.44-.1-.26-.1-.5-.03-.53zm-3.84.2a.5.5 0 0 1 .23 0c.2.04.33.1.33.18-.02.03-.18.06-.36.03-.17-.04-.34-.1-.3-.14 0-.03.03-.06.1-.07zm-5.45.18c.13.05.25.2.34.42h-.34c.4.21.63.44.63.71l-.5-.13c.37.27.54.5.54.7l-.4-.28.13.38a.83.83 0 0 1-.67-.29c-.32-.4-.4-.92-.14-1.32.14-.18.28-.24.41-.19zm.9.42c.14-.03.24.14.27.33.03.2-.03.38-.17.41-.1.03-.22-.13-.27-.33 0-.2.06-.41.17-.41zm13.51.06c.1-.03.2.07.17.21-.06.2-.03.34.06.57.08.16-.12.44-.36.13-.21-.23-.14-.6.03-.83a.22.22 0 0 1 .1-.08zm.5.31c.06 0 .11.05.13.13.03.17.07.27.2.41.14.1.07.36-.2.23-.23-.14-.3-.44-.26-.67.03-.07.08-.1.14-.1zm19.18.29a.1.1 0 0 1 .08.02c.09.06.03.26-.14.46s-.33.3-.41.22c-.1-.06-.03-.25.1-.45.13-.16.27-.25.37-.25zm-17.14.42c.03.29.14.5.3.65.32.27.4.68.08.94l-.72-.65c-.2-.41-.03-.7.34-.94zm17.47 1.45c.2.57 1.14.93.46 1.08-.06.15-.26.1-.62-.1-.55-.32-.41-.66.16-.98zm-14.31.72c.06 0 .1.02.11.03.03.1-.07.2-.22.24-.19.06-.3.06-.35 0-.03-.06.07-.17.24-.24a.5.5 0 0 1 .22-.03zm.5.57c.08 0 .15.02.16.06.03.1-.1.25-.3.3-.22.11-.41.07-.44 0-.08-.1.09-.24.3-.3a.7.7 0 0 1 .28-.06zm-4.77.03c.17 0 .33.06.33.12 0 .03-.1.11-.25.11-.22 0-.34-.03-.34-.1-.03-.07.1-.13.26-.13zm21.6.24c.13 0 .28.03.43.1.26.06.23.4.23.63-.17-.16-.34-.36-.5-.16-.48-.37-.64-.17-.98-.08.1-.25.41-.5.82-.5zM36 73.2c.1 0 .18.04.2.1.05.1-.14.31-.4.4-.26.1-.53.1-.58-.03-.03-.09.14-.26.4-.4.13-.05.27-.07.38-.07zm-4.5.5c.12 0 .2 0 .22.03.06.06-.14.17-.4.28-.27.06-.53.06-.6 0-.05-.07.13-.17.39-.25l.4-.06zm17.4.03c.02 0 .1.06.13.2.03.1.03.21-.03.24-.03 0-.11-.07-.14-.2-.05-.1-.05-.22.03-.24zm.75.06c.13 0 .24.08.24.22 0 .1-.09.16-.24.16-.1 0-.2-.07-.2-.16 0-.14.1-.22.2-.22zm-1.15.02c.06-.03.16.1.24.27.01.17.01.34-.05.34-.06.03-.16-.07-.23-.28-.03-.16-.02-.33.04-.33zm-16.7.15c.12 0 .21 0 .25.05.03.06-.17.2-.47.27-.33.09-.6.09-.67.03-.06-.08.14-.21.47-.27.15-.04.3-.07.42-.08zm.25.35c.08 0 .15.01.17.05.03.03-.1.13-.3.2-.23.02-.45.02-.48-.04-.03-.03.14-.13.34-.16.1-.04.2-.05.27-.05zm0 .3c.2 0 .32.06.32.14.04.06-.1.1-.26.1-.17 0-.33-.02-.33-.1s.1-.14.27-.14z" fill="#fff"/></svg>